<?xml version="1.0" encoding="utf-8" standalone="no"?>
<!DOCTYPE svg PUBLIC "-//W3C//DTD SVG 1.1//EN"
  "http://www.w3.org/Graphics/SVG/1.1/DTD/svg11.dtd">
<!-- Created with matplotlib (https://matplotlib.org/) -->
<svg height="216pt" version="1.1" viewBox="0 0 360 216" width="360pt" xmlns="http://www.w3.org/2000/svg" xmlns:xlink="http://www.w3.org/1999/xlink">
 <metadata>
  <rdf:RDF xmlns:cc="http://creativecommons.org/ns#" xmlns:dc="http://purl.org/dc/elements/1.1/" xmlns:rdf="http://www.w3.org/1999/02/22-rdf-syntax-ns#">
   <cc:Work>
    <dc:type rdf:resource="http://purl.org/dc/dcmitype/StillImage"/>
    <dc:date>2021-05-14T15:36:06.447696</dc:date>
    <dc:format>image/svg+xml</dc:format>
    <dc:creator>
     <cc:Agent>
      <dc:title>Matplotlib v3.3.3, https://matplotlib.org/</dc:title>
     </cc:Agent>
    </dc:creator>
   </cc:Work>
  </rdf:RDF>
 </metadata>
 <defs>
  <style type="text/css">*{stroke-linecap:butt;stroke-linejoin:round;}</style>
 </defs>
 <g id="figure_1">
  <g id="patch_1">
   <path d="M 0 216 
L 360 216 
L 360 0 
L 0 0 
z
" style="fill:#ffffff;"/>
  </g>
  <g id="patch_2">
   <path d="M 101.34 192.24 
L 267.66 192.24 
L 267.66 25.92 
L 101.34 25.92 
z
" style="fill:#ffffff;"/>
  </g>
  <g id="pane3d_1">
   <g id="patch_3">
    <path d="M 113.898307 151.230818 
L 168.822603 105.192184 
L 168.059102 38.796244 
L 110.506396 80.795588 
" style="fill:#f2f2f2;opacity:0.5;stroke:#f2f2f2;stroke-linejoin:miter;"/>
   </g>
  </g>
  <g id="pane3d_2">
   <g id="patch_4">
    <path d="M 168.822603 105.192184 
L 256.9565 130.809229 
L 260.101688 62.126357 
L 168.059102 38.796244 
" style="fill:#e6e6e6;opacity:0.5;stroke:#e6e6e6;stroke-linejoin:miter;"/>
   </g>
  </g>
  <g id="pane3d_3">
   <g id="patch_5">
    <path d="M 113.898307 151.230818 
L 207.324543 181.743827 
L 256.9565 130.809229 
L 168.822603 105.192184 
" style="fill:#ececec;opacity:0.5;stroke:#ececec;stroke-linejoin:miter;"/>
   </g>
  </g>
  <g id="axis3d_1">
   <g id="line2d_1">
    <path d="M 113.898307 151.230818 
L 207.324543 181.743827 
" style="fill:none;stroke:#000000;stroke-linecap:square;stroke-width:0.8;"/>
   </g>
   <g id="text_1">
    <!-- v -->
    <g transform="translate(140.047513 204.293156)scale(0.1 -0.1)">
     <defs>
      <path d="M 2.984375 54.6875 
L 12.5 54.6875 
L 29.59375 8.796875 
L 46.6875 54.6875 
L 56.203125 54.6875 
L 35.6875 0 
L 23.484375 0 
z
" id="DejaVuSans-118"/>
     </defs>
     <use xlink:href="#DejaVuSans-118"/>
    </g>
   </g>
   <g id="Line3DCollection_1">
    <path d="M 119.55669 153.078846 
L 174.182637 106.750135 
L 173.645763 40.2123 
" style="fill:none;stroke:#b0b0b0;stroke-width:0.8;"/>
    <path d="M 139.241853 159.50802 
L 192.807505 112.163648 
L 193.069251 45.135588 
" style="fill:none;stroke:#b0b0b0;stroke-width:0.8;"/>
    <path d="M 159.379926 166.085115 
L 211.82503 117.691292 
L 212.920116 50.167203 
" style="fill:none;stroke:#b0b0b0;stroke-width:0.8;"/>
    <path d="M 179.986723 172.815295 
L 231.247762 123.336713 
L 233.212618 55.310761 
" style="fill:none;stroke:#b0b0b0;stroke-width:0.8;"/>
    <path d="M 201.078801 179.703967 
L 251.08879 129.103717 
L 253.961662 60.570039 
" style="fill:none;stroke:#b0b0b0;stroke-width:0.8;"/>
   </g>
   <g id="xtick_1">
    <g id="line2d_2">
     <path d="M 120.03237 152.675418 
L 118.60329 153.887433 
" style="fill:none;stroke:#000000;stroke-linecap:square;stroke-width:0.8;"/>
    </g>
    <g id="text_2">
     <!-- 0.00 -->
     <g transform="translate(100.877998 176.423114)scale(0.1 -0.1)">
      <defs>
       <path d="M 31.78125 66.40625 
Q 24.171875 66.40625 20.328125 58.90625 
Q 16.5 51.421875 16.5 36.375 
Q 16.5 21.390625 20.328125 13.890625 
Q 24.171875 6.390625 31.78125 6.390625 
Q 39.453125 6.390625 43.28125 13.890625 
Q 47.125 21.390625 47.125 36.375 
Q 47.125 51.421875 43.28125 58.90625 
Q 39.453125 66.40625 31.78125 66.40625 
z
M 31.78125 74.21875 
Q 44.046875 74.21875 50.515625 64.515625 
Q 56.984375 54.828125 56.984375 36.375 
Q 56.984375 17.96875 50.515625 8.265625 
Q 44.046875 -1.421875 31.78125 -1.421875 
Q 19.53125 -1.421875 13.0625 8.265625 
Q 6.59375 17.96875 6.59375 36.375 
Q 6.59375 54.828125 13.0625 64.515625 
Q 19.53125 74.21875 31.78125 74.21875 
z
" id="DejaVuSans-48"/>
       <path d="M 10.6875 12.40625 
L 21 12.40625 
L 21 0 
L 10.6875 0 
z
" id="DejaVuSans-46"/>
      </defs>
      <use xlink:href="#DejaVuSans-48"/>
      <use x="63.623047" xlink:href="#DejaVuSans-46"/>
      <use x="95.410156" xlink:href="#DejaVuSans-48"/>
      <use x="159.033203" xlink:href="#DejaVuSans-48"/>
     </g>
    </g>
   </g>
   <g id="xtick_2">
    <g id="line2d_3">
     <path d="M 139.70873 159.095367 
L 138.306071 160.335117 
" style="fill:none;stroke:#000000;stroke-linecap:square;stroke-width:0.8;"/>
    </g>
    <g id="text_3">
     <!-- 0.25 -->
     <g transform="translate(120.595508 183.071208)scale(0.1 -0.1)">
      <defs>
       <path d="M 19.1875 8.296875 
L 53.609375 8.296875 
L 53.609375 0 
L 7.328125 0 
L 7.328125 8.296875 
Q 12.9375 14.109375 22.625 23.890625 
Q 32.328125 33.6875 34.8125 36.53125 
Q 39.546875 41.84375 41.421875 45.53125 
Q 43.3125 49.21875 43.3125 52.78125 
Q 43.3125 58.59375 39.234375 62.25 
Q 35.15625 65.921875 28.609375 65.921875 
Q 23.96875 65.921875 18.8125 64.3125 
Q 13.671875 62.703125 7.8125 59.421875 
L 7.8125 69.390625 
Q 13.765625 71.78125 18.9375 73 
Q 24.125 74.21875 28.421875 74.21875 
Q 39.75 74.21875 46.484375 68.546875 
Q 53.21875 62.890625 53.21875 53.421875 
Q 53.21875 48.921875 51.53125 44.890625 
Q 49.859375 40.875 45.40625 35.40625 
Q 44.1875 33.984375 37.640625 27.21875 
Q 31.109375 20.453125 19.1875 8.296875 
z
" id="DejaVuSans-50"/>
       <path d="M 10.796875 72.90625 
L 49.515625 72.90625 
L 49.515625 64.59375 
L 19.828125 64.59375 
L 19.828125 46.734375 
Q 21.96875 47.46875 24.109375 47.828125 
Q 26.265625 48.1875 28.421875 48.1875 
Q 40.625 48.1875 47.75 41.5 
Q 54.890625 34.8125 54.890625 23.390625 
Q 54.890625 11.625 47.5625 5.09375 
Q 40.234375 -1.421875 26.90625 -1.421875 
Q 22.3125 -1.421875 17.546875 -0.640625 
Q 12.796875 0.140625 7.71875 1.703125 
L 7.71875 11.625 
Q 12.109375 9.234375 16.796875 8.0625 
Q 21.484375 6.890625 26.703125 6.890625 
Q 35.15625 6.890625 40.078125 11.328125 
Q 45.015625 15.765625 45.015625 23.390625 
Q 45.015625 31 40.078125 35.4375 
Q 35.15625 39.890625 26.703125 39.890625 
Q 22.75 39.890625 18.8125 39.015625 
Q 14.890625 38.140625 10.796875 36.28125 
z
" id="DejaVuSans-53"/>
      </defs>
      <use xlink:href="#DejaVuSans-48"/>
      <use x="63.623047" xlink:href="#DejaVuSans-46"/>
      <use x="95.410156" xlink:href="#DejaVuSans-50"/>
      <use x="159.033203" xlink:href="#DejaVuSans-53"/>
     </g>
    </g>
   </g>
   <g id="xtick_3">
    <g id="line2d_4">
     <path d="M 159.837469 165.662916 
L 158.462832 166.931365 
" style="fill:none;stroke:#000000;stroke-linecap:square;stroke-width:0.8;"/>
    </g>
    <g id="text_4">
     <!-- 0.50 -->
     <g transform="translate(140.769439 189.873192)scale(0.1 -0.1)">
      <use xlink:href="#DejaVuSans-48"/>
      <use x="63.623047" xlink:href="#DejaVuSans-46"/>
      <use x="95.410156" xlink:href="#DejaVuSans-53"/>
      <use x="159.033203" xlink:href="#DejaVuSans-48"/>
     </g>
    </g>
   </g>
   <g id="xtick_4">
    <g id="line2d_5">
     <path d="M 180.434367 172.383216 
L 179.089446 173.681371 
" style="fill:none;stroke:#000000;stroke-linecap:square;stroke-width:0.8;"/>
    </g>
    <g id="text_5">
     <!-- 0.75 -->
     <g transform="translate(161.415826 196.834472)scale(0.1 -0.1)">
      <defs>
       <path d="M 8.203125 72.90625 
L 55.078125 72.90625 
L 55.078125 68.703125 
L 28.609375 0 
L 18.3125 0 
L 43.21875 64.59375 
L 8.203125 64.59375 
z
" id="DejaVuSans-55"/>
      </defs>
      <use xlink:href="#DejaVuSans-48"/>
      <use x="63.623047" xlink:href="#DejaVuSans-46"/>
      <use x="95.410156" xlink:href="#DejaVuSans-55"/>
      <use x="159.033203" xlink:href="#DejaVuSans-53"/>
     </g>
    </g>
   </g>
   <g id="xtick_5">
    <g id="line2d_6">
     <path d="M 201.515951 179.261657 
L 200.202535 180.590575 
" style="fill:none;stroke:#000000;stroke-linecap:square;stroke-width:0.8;"/>
    </g>
    <g id="text_6">
     <!-- 1.00 -->
     <g transform="translate(182.551462 203.960712)scale(0.1 -0.1)">
      <defs>
       <path d="M 12.40625 8.296875 
L 28.515625 8.296875 
L 28.515625 63.921875 
L 10.984375 60.40625 
L 10.984375 69.390625 
L 28.421875 72.90625 
L 38.28125 72.90625 
L 38.28125 8.296875 
L 54.390625 8.296875 
L 54.390625 0 
L 12.40625 0 
z
" id="DejaVuSans-49"/>
      </defs>
      <use xlink:href="#DejaVuSans-49"/>
      <use x="63.623047" xlink:href="#DejaVuSans-46"/>
      <use x="95.410156" xlink:href="#DejaVuSans-48"/>
      <use x="159.033203" xlink:href="#DejaVuSans-48"/>
     </g>
    </g>
   </g>
  </g>
  <g id="axis3d_2">
   <g id="line2d_7">
    <path d="M 256.9565 130.809229 
L 207.324543 181.743827 
" style="fill:none;stroke:#000000;stroke-linecap:square;stroke-width:0.8;"/>
   </g>
   <g id="text_7">
    <!-- u -->
    <g transform="translate(257.07297 185.928356)scale(0.1 -0.1)">
     <defs>
      <path d="M 8.5 21.578125 
L 8.5 54.6875 
L 17.484375 54.6875 
L 17.484375 21.921875 
Q 17.484375 14.15625 20.5 10.265625 
Q 23.53125 6.390625 29.59375 6.390625 
Q 36.859375 6.390625 41.078125 11.03125 
Q 45.3125 15.671875 45.3125 23.6875 
L 45.3125 54.6875 
L 54.296875 54.6875 
L 54.296875 0 
L 45.3125 0 
L 45.3125 8.40625 
Q 42.046875 3.421875 37.71875 1 
Q 33.40625 -1.421875 27.6875 -1.421875 
Q 18.265625 -1.421875 13.375 4.4375 
Q 8.5 10.296875 8.5 21.578125 
z
M 31.109375 56 
z
" id="DejaVuSans-117"/>
     </defs>
     <use xlink:href="#DejaVuSans-117"/>
    </g>
   </g>
   <g id="Line3DCollection_2">
    <path d="M 114.486308 77.891229 
L 117.683055 148.058367 
L 210.75869 178.219547 
" style="fill:none;stroke:#b0b0b0;stroke-width:0.8;"/>
    <path d="M 127.782778 68.188071 
L 130.341904 137.447469 
L 222.229689 166.44748 
" style="fill:none;stroke:#b0b0b0;stroke-width:0.8;"/>
    <path d="M 140.562987 58.861657 
L 142.530184 127.231011 
L 233.252217 155.135655 
" style="fill:none;stroke:#b0b0b0;stroke-width:0.8;"/>
    <path d="M 152.856429 49.890463 
L 154.273655 117.387401 
L 243.85207 144.257598 
" style="fill:none;stroke:#b0b0b0;stroke-width:0.8;"/>
    <path d="M 164.690394 41.254575 
L 165.596229 107.896594 
L 254.053103 133.788829 
" style="fill:none;stroke:#b0b0b0;stroke-width:0.8;"/>
   </g>
   <g id="xtick_6">
    <g id="line2d_8">
     <path d="M 209.974339 177.965378 
L 212.329421 178.728542 
" style="fill:none;stroke:#000000;stroke-linecap:square;stroke-width:0.8;"/>
    </g>
    <g id="text_8">
     <!-- 0.00 -->
     <g transform="translate(212.511141 199.246101)scale(0.1 -0.1)">
      <use xlink:href="#DejaVuSans-48"/>
      <use x="63.623047" xlink:href="#DejaVuSans-46"/>
      <use x="95.410156" xlink:href="#DejaVuSans-48"/>
      <use x="159.033203" xlink:href="#DejaVuSans-48"/>
     </g>
    </g>
   </g>
   <g id="xtick_7">
    <g id="line2d_9">
     <path d="M 221.45613 166.203343 
L 223.778768 166.936373 
" style="fill:none;stroke:#000000;stroke-linecap:square;stroke-width:0.8;"/>
    </g>
    <g id="text_9">
     <!-- 0.25 -->
     <g transform="translate(223.735769 187.194999)scale(0.1 -0.1)">
      <use xlink:href="#DejaVuSans-48"/>
      <use x="63.623047" xlink:href="#DejaVuSans-46"/>
      <use x="95.410156" xlink:href="#DejaVuSans-50"/>
      <use x="159.033203" xlink:href="#DejaVuSans-53"/>
     </g>
    </g>
   </g>
   <g id="xtick_8">
    <g id="line2d_10">
     <path d="M 232.489213 154.900968 
L 234.780119 155.605614 
" style="fill:none;stroke:#000000;stroke-linecap:square;stroke-width:0.8;"/>
    </g>
    <g id="text_10">
     <!-- 0.50 -->
     <g transform="translate(234.521155 175.615482)scale(0.1 -0.1)">
      <use xlink:href="#DejaVuSans-48"/>
      <use x="63.623047" xlink:href="#DejaVuSans-46"/>
      <use x="95.410156" xlink:href="#DejaVuSans-53"/>
      <use x="159.033203" xlink:href="#DejaVuSans-48"/>
     </g>
    </g>
   </g>
   <g id="xtick_9">
    <g id="line2d_11">
     <path d="M 243.099389 144.031822 
L 245.359266 144.709701 
" style="fill:none;stroke:#000000;stroke-linecap:square;stroke-width:0.8;"/>
    </g>
    <g id="text_11">
     <!-- 0.75 -->
     <g transform="translate(244.892585 164.4804)scale(0.1 -0.1)">
      <use xlink:href="#DejaVuSans-48"/>
      <use x="63.623047" xlink:href="#DejaVuSans-46"/>
      <use x="95.410156" xlink:href="#DejaVuSans-55"/>
      <use x="159.033203" xlink:href="#DejaVuSans-53"/>
     </g>
    </g>
   </g>
   <g id="xtick_10">
    <g id="line2d_12">
     <path d="M 253.310516 133.571466 
L 255.540053 134.224075 
" style="fill:none;stroke:#000000;stroke-linecap:square;stroke-width:0.8;"/>
    </g>
    <g id="text_12">
     <!-- 1.00 -->
     <g transform="translate(254.873444 153.764646)scale(0.1 -0.1)">
      <use xlink:href="#DejaVuSans-49"/>
      <use x="63.623047" xlink:href="#DejaVuSans-46"/>
      <use x="95.410156" xlink:href="#DejaVuSans-48"/>
      <use x="159.033203" xlink:href="#DejaVuSans-48"/>
     </g>
    </g>
   </g>
  </g>
  <g id="axis3d_3">
   <g id="line2d_13">
    <path d="M 256.9565 130.809229 
L 260.101688 62.126357 
" style="fill:none;stroke:#000000;stroke-linecap:square;stroke-width:0.8;"/>
   </g>
   <g id="text_13">
    <!-- w -->
    <g transform="translate(294.621251 94.591644)scale(0.1 -0.1)">
     <defs>
      <path d="M 4.203125 54.6875 
L 13.1875 54.6875 
L 24.421875 12.015625 
L 35.59375 54.6875 
L 46.1875 54.6875 
L 57.421875 12.015625 
L 68.609375 54.6875 
L 77.59375 54.6875 
L 63.28125 0 
L 52.6875 0 
L 40.921875 44.828125 
L 29.109375 0 
L 18.5 0 
z
" id="DejaVuSans-119"/>
     </defs>
     <use xlink:href="#DejaVuSans-119"/>
    </g>
   </g>
   <g id="Line3DCollection_3">
    <path d="M 257.016759 129.493341 
L 168.807945 103.917475 
L 113.833429 149.883587 
" style="fill:none;stroke:#b0b0b0;stroke-width:0.8;"/>
    <path d="M 257.600545 116.744936 
L 168.665997 91.573351 
L 113.204671 136.827022 
" style="fill:none;stroke:#b0b0b0;stroke-width:0.8;"/>
    <path d="M 258.194113 103.782933 
L 168.521785 79.032323 
L 112.564975 123.543318 
" style="fill:none;stroke:#b0b0b0;stroke-width:0.8;"/>
    <path d="M 258.79771 90.601917 
L 168.375255 66.289642 
L 111.914053 110.026496 
" style="fill:none;stroke:#b0b0b0;stroke-width:0.8;"/>
    <path d="M 259.411592 77.196292 
L 168.226349 53.340404 
L 111.251606 96.270364 
" style="fill:none;stroke:#b0b0b0;stroke-width:0.8;"/>
    <path d="M 260.036026 63.560266 
L 168.075009 40.179546 
L 110.577327 82.268511 
" style="fill:none;stroke:#b0b0b0;stroke-width:0.8;"/>
   </g>
   <g id="xtick_11">
    <g id="line2d_14">
     <path d="M 256.276414 129.27868 
L 258.49921 129.923173 
" style="fill:none;stroke:#000000;stroke-linecap:square;stroke-width:0.8;"/>
    </g>
    <g id="text_14">
     <!-- 0.0 -->
     <g transform="translate(267.296337 134.495544)scale(0.1 -0.1)">
      <use xlink:href="#DejaVuSans-48"/>
      <use x="63.623047" xlink:href="#DejaVuSans-46"/>
      <use x="95.410156" xlink:href="#DejaVuSans-48"/>
     </g>
    </g>
   </g>
   <g id="xtick_12">
    <g id="line2d_15">
     <path d="M 256.853819 116.533587 
L 259.09579 117.168143 
" style="fill:none;stroke:#000000;stroke-linecap:square;stroke-width:0.8;"/>
    </g>
    <g id="text_15">
     <!-- 0.2 -->
     <g transform="translate(268.028032 121.787278)scale(0.1 -0.1)">
      <use xlink:href="#DejaVuSans-48"/>
      <use x="63.623047" xlink:href="#DejaVuSans-46"/>
      <use x="95.410156" xlink:href="#DejaVuSans-50"/>
     </g>
    </g>
   </g>
   <g id="xtick_13">
    <g id="line2d_16">
     <path d="M 257.440895 103.575036 
L 259.702373 104.19923 
" style="fill:none;stroke:#000000;stroke-linecap:square;stroke-width:0.8;"/>
    </g>
    <g id="text_16">
     <!-- 0.4 -->
     <g transform="translate(268.771927 108.867123)scale(0.1 -0.1)">
      <defs>
       <path d="M 37.796875 64.3125 
L 12.890625 25.390625 
L 37.796875 25.390625 
z
M 35.203125 72.90625 
L 47.609375 72.90625 
L 47.609375 25.390625 
L 58.015625 25.390625 
L 58.015625 17.1875 
L 47.609375 17.1875 
L 47.609375 0 
L 37.796875 0 
L 37.796875 17.1875 
L 4.890625 17.1875 
L 4.890625 26.703125 
z
" id="DejaVuSans-52"/>
      </defs>
      <use xlink:href="#DejaVuSans-48"/>
      <use x="63.623047" xlink:href="#DejaVuSans-46"/>
      <use x="95.410156" xlink:href="#DejaVuSans-52"/>
     </g>
    </g>
   </g>
   <g id="xtick_14">
    <g id="line2d_17">
     <path d="M 258.037885 90.39762 
L 260.319213 91.011011 
" style="fill:none;stroke:#000000;stroke-linecap:square;stroke-width:0.8;"/>
    </g>
    <g id="text_17">
     <!-- 0.6 -->
     <g transform="translate(269.52833 95.729736)scale(0.1 -0.1)">
      <defs>
       <path d="M 33.015625 40.375 
Q 26.375 40.375 22.484375 35.828125 
Q 18.609375 31.296875 18.609375 23.390625 
Q 18.609375 15.53125 22.484375 10.953125 
Q 26.375 6.390625 33.015625 6.390625 
Q 39.65625 6.390625 43.53125 10.953125 
Q 47.40625 15.53125 47.40625 23.390625 
Q 47.40625 31.296875 43.53125 35.828125 
Q 39.65625 40.375 33.015625 40.375 
z
M 52.59375 71.296875 
L 52.59375 62.3125 
Q 48.875 64.0625 45.09375 64.984375 
Q 41.3125 65.921875 37.59375 65.921875 
Q 27.828125 65.921875 22.671875 59.328125 
Q 17.53125 52.734375 16.796875 39.40625 
Q 19.671875 43.65625 24.015625 45.921875 
Q 28.375 48.1875 33.59375 48.1875 
Q 44.578125 48.1875 50.953125 41.515625 
Q 57.328125 34.859375 57.328125 23.390625 
Q 57.328125 12.15625 50.6875 5.359375 
Q 44.046875 -1.421875 33.015625 -1.421875 
Q 20.359375 -1.421875 13.671875 8.265625 
Q 6.984375 17.96875 6.984375 36.375 
Q 6.984375 53.65625 15.1875 63.9375 
Q 23.390625 74.21875 37.203125 74.21875 
Q 40.921875 74.21875 44.703125 73.484375 
Q 48.484375 72.75 52.59375 71.296875 
z
" id="DejaVuSans-54"/>
      </defs>
      <use xlink:href="#DejaVuSans-48"/>
      <use x="63.623047" xlink:href="#DejaVuSans-46"/>
      <use x="95.410156" xlink:href="#DejaVuSans-54"/>
     </g>
    </g>
   </g>
   <g id="xtick_15">
    <g id="line2d_18">
     <path d="M 258.645045 76.995748 
L 260.946574 77.597874 
" style="fill:none;stroke:#000000;stroke-linecap:square;stroke-width:0.8;"/>
    </g>
    <g id="text_18">
     <!-- 0.8 -->
     <g transform="translate(270.297558 82.369592)scale(0.1 -0.1)">
      <defs>
       <path d="M 31.78125 34.625 
Q 24.75 34.625 20.71875 30.859375 
Q 16.703125 27.09375 16.703125 20.515625 
Q 16.703125 13.921875 20.71875 10.15625 
Q 24.75 6.390625 31.78125 6.390625 
Q 38.8125 6.390625 42.859375 10.171875 
Q 46.921875 13.96875 46.921875 20.515625 
Q 46.921875 27.09375 42.890625 30.859375 
Q 38.875 34.625 31.78125 34.625 
z
M 21.921875 38.8125 
Q 15.578125 40.375 12.03125 44.71875 
Q 8.5 49.078125 8.5 55.328125 
Q 8.5 64.0625 14.71875 69.140625 
Q 20.953125 74.21875 31.78125 74.21875 
Q 42.671875 74.21875 48.875 69.140625 
Q 55.078125 64.0625 55.078125 55.328125 
Q 55.078125 49.078125 51.53125 44.71875 
Q 48 40.375 41.703125 38.8125 
Q 48.828125 37.15625 52.796875 32.3125 
Q 56.78125 27.484375 56.78125 20.515625 
Q 56.78125 9.90625 50.3125 4.234375 
Q 43.84375 -1.421875 31.78125 -1.421875 
Q 19.734375 -1.421875 13.25 4.234375 
Q 6.78125 9.90625 6.78125 20.515625 
Q 6.78125 27.484375 10.78125 32.3125 
Q 14.796875 37.15625 21.921875 38.8125 
z
M 18.3125 54.390625 
Q 18.3125 48.734375 21.84375 45.5625 
Q 25.390625 42.390625 31.78125 42.390625 
Q 38.140625 42.390625 41.71875 45.5625 
Q 45.3125 48.734375 45.3125 54.390625 
Q 45.3125 60.0625 41.71875 63.234375 
Q 38.140625 66.40625 31.78125 66.40625 
Q 25.390625 66.40625 21.84375 63.234375 
Q 18.3125 60.0625 18.3125 54.390625 
z
" id="DejaVuSans-56"/>
      </defs>
      <use xlink:href="#DejaVuSans-48"/>
      <use x="63.623047" xlink:href="#DejaVuSans-46"/>
      <use x="95.410156" xlink:href="#DejaVuSans-56"/>
     </g>
    </g>
   </g>
   <g id="xtick_16">
    <g id="line2d_19">
     <path d="M 259.262636 63.363635 
L 261.584725 63.954017 
" style="fill:none;stroke:#000000;stroke-linecap:square;stroke-width:0.8;"/>
    </g>
    <g id="text_19">
     <!-- 1.0 -->
     <g transform="translate(271.07994 68.780976)scale(0.1 -0.1)">
      <use xlink:href="#DejaVuSans-49"/>
      <use x="63.623047" xlink:href="#DejaVuSans-46"/>
      <use x="95.410156" xlink:href="#DejaVuSans-48"/>
     </g>
    </g>
   </g>
  </g>
  <g id="axes_1">
   <g id="line2d_20">
    <path clip-path="url(#p598f174006)" d="M 123.265468 148.540403 
L 120.437645 81.034262 
" style="fill:none;stroke:#ff0000;stroke-linecap:square;stroke-width:1.5;"/>
    <defs>
     <path d="M 0 3 
C 0.795609 3 1.55874 2.683901 2.12132 2.12132 
C 2.683901 1.55874 3 0.795609 3 0 
C 3 -0.795609 2.683901 -1.55874 2.12132 -2.12132 
C 1.55874 -2.683901 0.795609 -3 0 -3 
C -0.795609 -3 -1.55874 -2.683901 -2.12132 -2.12132 
C -2.683901 -1.55874 -3 -0.795609 -3 0 
C -3 0.795609 -2.683901 1.55874 -2.12132 2.12132 
C -1.55874 2.683901 -0.795609 3 0 3 
z
" id="m9496832c3d" style="stroke:#ff0000;"/>
    </defs>
    <g clip-path="url(#p598f174006)">
     <use style="fill:#ff0000;stroke:#ff0000;" x="123.265468" xlink:href="#m9496832c3d" y="148.540403"/>
     <use style="fill:#ff0000;stroke:#ff0000;" x="120.437645" xlink:href="#m9496832c3d" y="81.034262"/>
    </g>
   </g>
   <g id="line2d_21">
    <path clip-path="url(#p598f174006)" d="M 123.265468 148.540403 
L 170.961593 108.189167 
" style="fill:none;stroke:#ff0000;stroke-linecap:square;stroke-width:1.5;"/>
    <g clip-path="url(#p598f174006)">
     <use style="fill:#ff0000;stroke:#ff0000;" x="123.265468" xlink:href="#m9496832c3d" y="148.540403"/>
     <use style="fill:#ff0000;stroke:#ff0000;" x="170.961593" xlink:href="#m9496832c3d" y="108.189167"/>
    </g>
   </g>
   <g id="line2d_22">
    <path clip-path="url(#p598f174006)" d="M 123.265468 148.540403 
L 204.554703 174.82001 
" style="fill:none;stroke:#ff0000;stroke-linecap:square;stroke-width:1.5;"/>
    <g clip-path="url(#p598f174006)">
     <use style="fill:#ff0000;stroke:#ff0000;" x="123.265468" xlink:href="#m9496832c3d" y="148.540403"/>
     <use style="fill:#ff0000;stroke:#ff0000;" x="204.554703" xlink:href="#m9496832c3d" y="174.82001"/>
    </g>
   </g>
   <g id="line2d_23">
    <path clip-path="url(#p598f174006)" d="M 170.961593 108.189167 
L 120.437645 81.034262 
" style="fill:none;stroke:#ff0000;stroke-linecap:square;stroke-width:1.5;"/>
    <g clip-path="url(#p598f174006)">
     <use style="fill:#ff0000;stroke:#ff0000;" x="170.961593" xlink:href="#m9496832c3d" y="108.189167"/>
     <use style="fill:#ff0000;stroke:#ff0000;" x="120.437645" xlink:href="#m9496832c3d" y="81.034262"/>
    </g>
   </g>
   <g id="line2d_24">
    <path clip-path="url(#p598f174006)" d="M 204.554703 174.82001 
L 170.961593 108.189167 
" style="fill:none;stroke:#ff0000;stroke-linecap:square;stroke-width:1.5;"/>
    <g clip-path="url(#p598f174006)">
     <use style="fill:#ff0000;stroke:#ff0000;" x="204.554703" xlink:href="#m9496832c3d" y="174.82001"/>
     <use style="fill:#ff0000;stroke:#ff0000;" x="170.961593" xlink:href="#m9496832c3d" y="108.189167"/>
    </g>
   </g>
   <g id="line2d_25">
    <path clip-path="url(#p598f174006)" d="M 120.437645 81.034262 
L 204.554703 174.82001 
" style="fill:none;stroke:#ff0000;stroke-linecap:square;stroke-width:1.5;"/>
    <g clip-path="url(#p598f174006)">
     <use style="fill:#ff0000;stroke:#ff0000;" x="120.437645" xlink:href="#m9496832c3d" y="81.034262"/>
     <use style="fill:#ff0000;stroke:#ff0000;" x="204.554703" xlink:href="#m9496832c3d" y="174.82001"/>
    </g>
   </g>
  </g>
 </g>
 <defs>
  <clipPath id="p598f174006">
   <rect height="166.32" width="166.32" x="101.34" y="25.92"/>
  </clipPath>
 </defs>
</svg>
