<?xml version="1.0" encoding="utf-8" standalone="no"?>
<!DOCTYPE svg PUBLIC "-//W3C//DTD SVG 1.1//EN"
  "http://www.w3.org/Graphics/SVG/1.1/DTD/svg11.dtd">
<!-- Created with matplotlib (https://matplotlib.org/) -->
<svg height="288pt" version="1.1" viewBox="0 0 432 288" width="432pt" xmlns="http://www.w3.org/2000/svg" xmlns:xlink="http://www.w3.org/1999/xlink">
 <metadata>
  <rdf:RDF xmlns:cc="http://creativecommons.org/ns#" xmlns:dc="http://purl.org/dc/elements/1.1/" xmlns:rdf="http://www.w3.org/1999/02/22-rdf-syntax-ns#">
   <cc:Work>
    <dc:type rdf:resource="http://purl.org/dc/dcmitype/StillImage"/>
    <dc:date>2021-02-24T15:30:38.949314</dc:date>
    <dc:format>image/svg+xml</dc:format>
    <dc:creator>
     <cc:Agent>
      <dc:title>Matplotlib v3.3.3, https://matplotlib.org/</dc:title>
     </cc:Agent>
    </dc:creator>
   </cc:Work>
  </rdf:RDF>
 </metadata>
 <defs>
  <style type="text/css">*{stroke-linecap:butt;stroke-linejoin:round;}</style>
 </defs>
 <g id="figure_1">
  <g id="patch_1">
   <path d="M 0 288 
L 432 288 
L 432 0 
L 0 0 
z
" style="fill:none;"/>
  </g>
  <g id="axes_1">
   <g id="Quiver_1">
    <path clip-path="url(#p9074576c24)" d="M 69.9284 242.826582 
L 60.537739 252.217243 
L 62.668393 252.927461 
L 53.435558 257.898987 
L 58.407085 248.666152 
L 59.117303 250.796806 
L 68.507964 241.406146 
L 69.9284 242.826582 
"/>
    <path clip-path="url(#p9074576c24)" d="M 103.829189 242.733006 
L 95.675812 253.215919 
L 97.878105 253.656377 
L 89.333209 259.734705 
L 93.121153 249.956526 
L 94.090161 251.982635 
L 102.243538 241.499722 
L 103.829189 242.733006 
"/>
    <path clip-path="url(#p9074576c24)" d="M 137.732549 242.604143 
L 131.283017 254.213302 
L 133.526804 254.310858 
L 126.014995 261.627554 
L 128.258782 251.384179 
L 129.52701 253.237742 
L 135.976542 241.628584 
L 137.732549 242.604143 
"/>
    <path clip-path="url(#p9074576c24)" d="M 171.625585 242.433983 
L 167.425954 255.032876 
L 169.649288 254.715257 
L 163.614524 263.290975 
L 163.932143 252.809542 
L 165.520239 254.397638 
L 169.71987 241.798744 
L 171.625585 242.433983 
"/>
    <path clip-path="url(#p9074576c24)" d="M 205.489166 242.227281 
L 204.022591 255.426455 
L 206.130022 254.650033 
L 202.026077 264.299849 
L 200.140481 253.984528 
L 202.026077 255.20462 
L 203.492652 242.005446 
L 205.489166 242.227281 
"/>
    <path clip-path="url(#p9074576c24)" d="M 239.307348 242.005446 
L 240.773923 255.20462 
L 242.659519 253.984528 
L 240.773923 264.299849 
L 236.669978 254.650033 
L 238.777409 255.426455 
L 237.310834 242.227281 
L 239.307348 242.005446 
"/>
    <path clip-path="url(#p9074576c24)" d="M 273.08013 241.798744 
L 277.279761 254.397638 
L 278.867857 252.809542 
L 279.185476 263.290975 
L 273.150712 254.715257 
L 275.374046 255.032876 
L 271.174415 242.433983 
L 273.08013 241.798744 
"/>
    <path clip-path="url(#p9074576c24)" d="M 306.823458 241.628584 
L 313.27299 253.237742 
L 314.541218 251.384179 
L 316.785005 261.627554 
L 309.273196 254.310858 
L 311.516983 254.213302 
L 305.067451 242.604143 
L 306.823458 241.628584 
"/>
    <path clip-path="url(#p9074576c24)" d="M 340.556462 241.499722 
L 348.709839 251.982635 
L 349.678847 249.956526 
L 353.466791 259.734705 
L 344.921895 253.656377 
L 347.124188 253.215919 
L 338.970811 242.733006 
L 340.556462 241.499722 
"/>
    <path clip-path="url(#p9074576c24)" d="M 374.292036 241.406146 
L 383.682697 250.796806 
L 384.392915 248.666152 
L 389.364442 257.898987 
L 380.131607 252.927461 
L 382.262261 252.217243 
L 372.8716 242.826582 
L 374.292036 241.406146 
"/>
    <path clip-path="url(#p9074576c24)" d="M 69.834824 220.945553 
L 59.351911 229.09893 
L 61.37802 230.067938 
L 51.59984 233.855882 
L 57.678168 225.310986 
L 58.118627 227.513279 
L 68.60154 219.359902 
L 69.834824 220.945553 
"/>
    <path clip-path="url(#p9074576c24)" d="M 103.746582 220.862945 
L 94.355921 230.253606 
L 96.486575 230.963824 
L 87.25374 235.935351 
L 92.225267 226.702516 
L 92.935485 228.83317 
L 102.326146 219.442509 
L 103.746582 220.862945 
"/>
    <path clip-path="url(#p9074576c24)" d="M 137.671859 220.736523 
L 129.952784 231.543229 
L 132.171207 231.893506 
L 123.881309 238.315258 
L 127.267324 228.390732 
L 128.318156 230.375638 
L 136.037232 219.568932 
L 137.671859 220.736523 
"/>
    <path clip-path="url(#p9074576c24)" d="M 171.595917 220.54838 
L 166.364511 232.754993 
L 168.606542 232.623109 
L 161.880449 240.668044 
L 163.067406 230.249194 
L 164.518132 231.963688 
L 169.749538 219.757075 
L 171.595917 220.54838 
"/>
    <path clip-path="url(#p9074576c24)" d="M 205.485214 220.294771 
L 203.607082 233.441696 
L 205.737736 232.731478 
L 201.334384 242.2484 
L 199.771905 231.879216 
L 201.618472 233.157609 
L 203.496604 220.010684 
L 205.485214 220.294771 
"/>
    <path clip-path="url(#p9074576c24)" d="M 239.303396 220.010684 
L 241.181528 233.157609 
L 243.028095 231.879216 
L 241.465616 242.2484 
L 237.062264 232.731478 
L 239.192918 233.441696 
L 237.314786 220.294771 
L 239.303396 220.010684 
"/>
    <path clip-path="url(#p9074576c24)" d="M 273.050462 219.757075 
L 278.281868 231.963688 
L 279.732594 230.249194 
L 280.919551 240.668044 
L 274.193458 232.623109 
L 276.435489 232.754993 
L 271.204083 220.54838 
L 273.050462 219.757075 
"/>
    <path clip-path="url(#p9074576c24)" d="M 306.762768 219.568932 
L 314.481844 230.375638 
L 315.532676 228.390732 
L 318.918691 238.315258 
L 310.628793 231.893506 
L 312.847216 231.543229 
L 305.128141 220.736523 
L 306.762768 219.568932 
"/>
    <path clip-path="url(#p9074576c24)" d="M 340.473854 219.442509 
L 349.864515 228.83317 
L 350.574733 226.702516 
L 355.54626 235.935351 
L 346.313425 230.963824 
L 348.444079 230.253606 
L 339.053418 220.862945 
L 340.473854 219.442509 
"/>
    <path clip-path="url(#p9074576c24)" d="M 374.19846 219.359902 
L 384.681373 227.513279 
L 385.121832 225.310986 
L 391.20016 233.855882 
L 381.42198 230.067938 
L 383.448089 229.09893 
L 372.965176 220.945553 
L 374.19846 219.359902 
"/>
    <path clip-path="url(#p9074576c24)" d="M 69.705962 199.067094 
L 58.096803 205.516627 
L 59.950366 206.784854 
L 49.706991 209.028641 
L 57.023688 201.516833 
L 57.121244 203.76062 
L 68.730402 197.311087 
L 69.705962 199.067094 
"/>
    <path clip-path="url(#p9074576c24)" d="M 103.620159 199.006405 
L 92.813453 206.725481 
L 94.798358 207.776313 
L 84.873833 211.162327 
L 91.295585 202.872429 
L 91.645862 205.090853 
L 102.452568 197.371777 
L 103.620159 199.006405 
"/>
    <path clip-path="url(#p9074576c24)" d="M 137.564764 198.899309 
L 128.174103 208.28997 
L 130.304757 209.000188 
L 121.071922 213.971714 
L 126.043448 204.73888 
L 126.753667 206.869534 
L 136.144327 197.478873 
L 137.564764 198.899309 
"/>
    <path clip-path="url(#p9074576c24)" d="M 171.533993 198.70585 
L 164.701284 210.093699 
L 166.940575 210.265953 
L 159.189182 217.328333 
L 161.77298 207.165395 
L 162.978752 209.06018 
L 169.811461 197.672331 
L 171.533993 198.70585 
"/>
    <path clip-path="url(#p9074576c24)" d="M 205.475804 198.38607 
L 202.871304 211.408574 
L 205.038073 210.817636 
L 200.113597 220.075652 
L 199.128702 209.635762 
L 200.901513 211.014615 
L 203.506014 197.992112 
L 205.475804 198.38607 
"/>
    <path clip-path="url(#p9074576c24)" d="M 239.293986 197.992112 
L 241.898487 211.014615 
L 243.671298 209.635762 
L 242.686403 220.075652 
L 237.761927 210.817636 
L 239.928696 211.408574 
L 237.324196 198.38607 
L 239.293986 197.992112 
"/>
    <path clip-path="url(#p9074576c24)" d="M 272.988539 197.672331 
L 279.821248 209.06018 
L 281.02702 207.165395 
L 283.610818 217.328333 
L 275.859425 210.265953 
L 278.098716 210.093699 
L 271.266007 198.70585 
L 272.988539 197.672331 
"/>
    <path clip-path="url(#p9074576c24)" d="M 306.655673 197.478873 
L 316.046333 206.869534 
L 316.756552 204.73888 
L 321.728078 213.971714 
L 312.495243 209.000188 
L 314.625897 208.28997 
L 305.235236 198.899309 
L 306.655673 197.478873 
"/>
    <path clip-path="url(#p9074576c24)" d="M 340.347432 197.371777 
L 351.154138 205.090853 
L 351.504415 202.872429 
L 357.926167 211.162327 
L 348.001642 207.776313 
L 349.986547 206.725481 
L 339.179841 199.006405 
L 340.347432 197.371777 
"/>
    <path clip-path="url(#p9074576c24)" d="M 374.069598 197.311087 
L 385.678756 203.76062 
L 385.776312 201.516833 
L 393.093009 209.028641 
L 382.849634 206.784854 
L 384.703197 205.516627 
L 373.094038 199.067094 
L 374.069598 197.311087 
"/>
    <path clip-path="url(#p9074576c24)" d="M 69.535801 177.178312 
L 56.936907 181.377943 
L 58.525003 182.966039 
L 48.043571 183.283658 
L 56.619288 177.248894 
L 56.301669 179.472228 
L 68.900563 175.272597 
L 69.535801 177.178312 
"/>
    <path clip-path="url(#p9074576c24)" d="M 103.432016 177.148644 
L 91.225403 182.38005 
L 92.939897 183.830776 
L 82.521047 185.017733 
L 90.565982 178.29164 
L 90.434097 180.533671 
L 102.640711 175.302265 
L 103.432016 177.148644 
"/>
    <path clip-path="url(#p9074576c24)" d="M 137.371305 177.08672 
L 125.983456 183.91943 
L 127.878241 185.125202 
L 117.715303 187.709 
L 124.777684 179.957607 
L 124.949937 182.196898 
L 136.337786 175.364189 
L 137.371305 177.08672 
"/>
    <path clip-path="url(#p9074576c24)" d="M 171.382945 176.935673 
L 161.992284 186.326333 
L 164.122939 187.036552 
L 154.890104 192.008078 
L 159.86163 182.775243 
L 160.571848 184.905897 
L 169.962509 175.515236 
L 171.382945 176.935673 
"/>
    <path clip-path="url(#p9074576c24)" d="M 205.443767 176.543074 
L 201.244135 189.141967 
L 203.46747 188.824348 
L 197.432705 197.400066 
L 197.750325 186.918633 
L 199.33842 188.506729 
L 203.538052 175.907835 
L 205.443767 176.543074 
"/>
    <path clip-path="url(#p9074576c24)" d="M 239.261948 175.907835 
L 243.46158 188.506729 
L 245.049675 186.918633 
L 245.367295 197.400066 
L 239.33253 188.824348 
L 241.555865 189.141967 
L 237.356233 176.543074 
L 239.261948 175.907835 
"/>
    <path clip-path="url(#p9074576c24)" d="M 272.837491 175.515236 
L 282.228152 184.905897 
L 282.93837 182.775243 
L 287.909896 192.008078 
L 278.677061 187.036552 
L 280.807716 186.326333 
L 271.417055 176.935673 
L 272.837491 175.515236 
"/>
    <path clip-path="url(#p9074576c24)" d="M 306.462214 175.364189 
L 317.850063 182.196898 
L 318.022316 179.957607 
L 325.084697 187.709 
L 314.921759 185.125202 
L 316.816544 183.91943 
L 305.428695 177.08672 
L 306.462214 175.364189 
"/>
    <path clip-path="url(#p9074576c24)" d="M 340.159289 175.302265 
L 352.365903 180.533671 
L 352.234018 178.29164 
L 360.278953 185.017733 
L 349.860103 183.830776 
L 351.574597 182.38005 
L 339.367984 177.148644 
L 340.159289 175.302265 
"/>
    <path clip-path="url(#p9074576c24)" d="M 373.899437 175.272597 
L 386.498331 179.472228 
L 386.180712 177.248894 
L 394.756429 183.283658 
L 384.274997 182.966039 
L 385.863093 181.377943 
L 373.264199 177.178312 
L 373.899437 175.272597 
"/>
    <path clip-path="url(#p9074576c24)" d="M 69.329099 155.260075 
L 56.129926 156.72665 
L 57.350017 158.612246 
L 47.034697 156.72665 
L 56.684513 152.622705 
L 55.908091 154.730136 
L 69.107264 153.263561 
L 69.329099 155.260075 
"/>
    <path clip-path="url(#p9074576c24)" d="M 103.178407 155.256123 
L 90.031482 157.134256 
L 91.309874 158.980823 
L 80.940691 157.418343 
L 90.457613 153.014991 
L 89.747395 155.145645 
L 102.89432 153.267513 
L 103.178407 155.256123 
"/>
    <path clip-path="url(#p9074576c24)" d="M 137.051525 155.246713 
L 124.029021 157.851214 
L 125.407874 159.624026 
L 114.967985 158.63913 
L 124.226 153.714654 
L 123.635063 155.881424 
L 136.657566 153.276923 
L 137.051525 155.246713 
"/>
    <path clip-path="url(#p9074576c24)" d="M 170.990346 155.214676 
L 158.391453 159.414307 
L 159.979549 161.002403 
L 149.498116 161.320022 
L 158.073834 155.285258 
L 157.756214 157.508592 
L 170.355108 153.308961 
L 170.990346 155.214676 
"/>
    <path clip-path="url(#p9074576c24)" d="M 205.201127 154.972036 
L 195.810466 164.362697 
L 197.94112 165.072915 
L 188.708286 170.044442 
L 193.679812 160.811607 
L 194.39003 162.942261 
L 203.780691 153.5516 
L 205.201127 154.972036 
"/>
    <path clip-path="url(#p9074576c24)" d="M 239.019309 153.5516 
L 248.40997 162.942261 
L 249.120188 160.811607 
L 254.091714 170.044442 
L 244.85888 165.072915 
L 246.989534 164.362697 
L 237.598873 154.972036 
L 239.019309 153.5516 
"/>
    <path clip-path="url(#p9074576c24)" d="M 272.444892 153.308961 
L 285.043786 157.508592 
L 284.726166 155.285258 
L 293.301884 161.320022 
L 282.820451 161.002403 
L 284.408547 159.414307 
L 271.809654 155.214676 
L 272.444892 153.308961 
"/>
    <path clip-path="url(#p9074576c24)" d="M 306.142434 153.276923 
L 319.164937 155.881424 
L 318.574 153.714654 
L 327.832015 158.63913 
L 317.392126 159.624026 
L 318.770979 157.851214 
L 305.748475 155.246713 
L 306.142434 153.276923 
"/>
    <path clip-path="url(#p9074576c24)" d="M 339.90568 153.267513 
L 353.052605 155.145645 
L 352.342387 153.014991 
L 361.859309 157.418343 
L 351.490126 158.980823 
L 352.768518 157.134256 
L 339.621593 155.256123 
L 339.90568 153.267513 
"/>
    <path clip-path="url(#p9074576c24)" d="M 373.692736 153.263561 
L 386.891909 154.730136 
L 386.115487 152.622705 
L 395.765303 156.72665 
L 385.449983 158.612246 
L 386.670074 156.72665 
L 373.470901 155.260075 
L 373.692736 153.263561 
"/>
    <path clip-path="url(#p9074576c24)" d="M 69.107264 133.296439 
L 55.908091 131.829864 
L 56.684513 133.937295 
L 47.034697 129.83335 
L 57.350017 127.947754 
L 56.129926 129.83335 
L 69.329099 131.299925 
L 69.107264 133.296439 
"/>
    <path clip-path="url(#p9074576c24)" d="M 102.89432 133.292487 
L 89.747395 131.414355 
L 90.457613 133.545009 
L 80.940691 129.141657 
L 91.309874 127.579177 
L 90.031482 129.425744 
L 103.178407 131.303877 
L 102.89432 133.292487 
"/>
    <path clip-path="url(#p9074576c24)" d="M 136.657566 133.283077 
L 123.635063 130.678576 
L 124.226 132.845346 
L 114.967985 127.92087 
L 125.407874 126.935974 
L 124.029021 128.708786 
L 137.051525 131.313287 
L 136.657566 133.283077 
"/>
    <path clip-path="url(#p9074576c24)" d="M 170.355108 133.251039 
L 157.756214 129.051408 
L 158.073834 131.274742 
L 149.498116 125.239978 
L 159.979549 125.557597 
L 158.391453 127.145693 
L 170.990346 131.345324 
L 170.355108 133.251039 
"/>
    <path clip-path="url(#p9074576c24)" d="M 203.780691 133.0084 
L 194.39003 123.617739 
L 193.679812 125.748393 
L 188.708286 116.515558 
L 197.94112 121.487085 
L 195.810466 122.197303 
L 205.201127 131.587964 
L 203.780691 133.0084 
"/>
    <path clip-path="url(#p9074576c24)" d="M 237.598873 131.587964 
L 246.989534 122.197303 
L 244.85888 121.487085 
L 254.091714 116.515558 
L 249.120188 125.748393 
L 248.40997 123.617739 
L 239.019309 133.0084 
L 237.598873 131.587964 
"/>
    <path clip-path="url(#p9074576c24)" d="M 271.809654 131.345324 
L 284.408547 127.145693 
L 282.820451 125.557597 
L 293.301884 125.239978 
L 284.726166 131.274742 
L 285.043786 129.051408 
L 272.444892 133.251039 
L 271.809654 131.345324 
"/>
    <path clip-path="url(#p9074576c24)" d="M 305.748475 131.313287 
L 318.770979 128.708786 
L 317.392126 126.935974 
L 327.832015 127.92087 
L 318.574 132.845346 
L 319.164937 130.678576 
L 306.142434 133.283077 
L 305.748475 131.313287 
"/>
    <path clip-path="url(#p9074576c24)" d="M 339.621593 131.303877 
L 352.768518 129.425744 
L 351.490126 127.579177 
L 361.859309 129.141657 
L 352.342387 133.545009 
L 353.052605 131.414355 
L 339.90568 133.292487 
L 339.621593 131.303877 
"/>
    <path clip-path="url(#p9074576c24)" d="M 373.470901 131.299925 
L 386.670074 129.83335 
L 385.449983 127.947754 
L 395.765303 129.83335 
L 386.115487 133.937295 
L 386.891909 131.829864 
L 373.692736 133.296439 
L 373.470901 131.299925 
"/>
    <path clip-path="url(#p9074576c24)" d="M 68.900563 111.287403 
L 56.301669 107.087772 
L 56.619288 109.311106 
L 48.043571 103.276342 
L 58.525003 103.593961 
L 56.936907 105.182057 
L 69.535801 109.381688 
L 68.900563 111.287403 
"/>
    <path clip-path="url(#p9074576c24)" d="M 102.640711 111.257735 
L 90.434097 106.026329 
L 90.565982 108.26836 
L 82.521047 101.542267 
L 92.939897 102.729224 
L 91.225403 104.17995 
L 103.432016 109.411356 
L 102.640711 111.257735 
"/>
    <path clip-path="url(#p9074576c24)" d="M 136.337786 111.195811 
L 124.949937 104.363102 
L 124.777684 106.602393 
L 117.715303 98.851 
L 127.878241 101.434798 
L 125.983456 102.64057 
L 137.371305 109.47328 
L 136.337786 111.195811 
"/>
    <path clip-path="url(#p9074576c24)" d="M 169.962509 111.044764 
L 160.571848 101.654103 
L 159.86163 103.784757 
L 154.890104 94.551922 
L 164.122939 99.523448 
L 161.992284 100.233667 
L 171.382945 109.624327 
L 169.962509 111.044764 
"/>
    <path clip-path="url(#p9074576c24)" d="M 203.538052 110.652165 
L 199.33842 98.053271 
L 197.750325 99.641367 
L 197.432705 89.159934 
L 203.46747 97.735652 
L 201.244135 97.418033 
L 205.443767 110.016926 
L 203.538052 110.652165 
"/>
    <path clip-path="url(#p9074576c24)" d="M 237.356233 110.016926 
L 241.555865 97.418033 
L 239.33253 97.735652 
L 245.367295 89.159934 
L 245.049675 99.641367 
L 243.46158 98.053271 
L 239.261948 110.652165 
L 237.356233 110.016926 
"/>
    <path clip-path="url(#p9074576c24)" d="M 271.417055 109.624327 
L 280.807716 100.233667 
L 278.677061 99.523448 
L 287.909896 94.551922 
L 282.93837 103.784757 
L 282.228152 101.654103 
L 272.837491 111.044764 
L 271.417055 109.624327 
"/>
    <path clip-path="url(#p9074576c24)" d="M 305.428695 109.47328 
L 316.816544 102.64057 
L 314.921759 101.434798 
L 325.084697 98.851 
L 318.022316 106.602393 
L 317.850063 104.363102 
L 306.462214 111.195811 
L 305.428695 109.47328 
"/>
    <path clip-path="url(#p9074576c24)" d="M 339.367984 109.411356 
L 351.574597 104.17995 
L 349.860103 102.729224 
L 360.278953 101.542267 
L 352.234018 108.26836 
L 352.365903 106.026329 
L 340.159289 111.257735 
L 339.367984 109.411356 
"/>
    <path clip-path="url(#p9074576c24)" d="M 373.264199 109.381688 
L 385.863093 105.182057 
L 384.274997 103.593961 
L 394.756429 103.276342 
L 386.180712 109.311106 
L 386.498331 107.087772 
L 373.899437 111.287403 
L 373.264199 109.381688 
"/>
    <path clip-path="url(#p9074576c24)" d="M 68.730402 89.248913 
L 57.121244 82.79938 
L 57.023688 85.043167 
L 49.706991 77.531359 
L 59.950366 79.775146 
L 58.096803 81.043373 
L 69.705962 87.492906 
L 68.730402 89.248913 
"/>
    <path clip-path="url(#p9074576c24)" d="M 102.452568 89.188223 
L 91.645862 81.469147 
L 91.295585 83.687571 
L 84.873833 75.397673 
L 94.798358 78.783687 
L 92.813453 79.834519 
L 103.620159 87.553595 
L 102.452568 89.188223 
"/>
    <path clip-path="url(#p9074576c24)" d="M 136.144327 89.081127 
L 126.753667 79.690466 
L 126.043448 81.82112 
L 121.071922 72.588286 
L 130.304757 77.559812 
L 128.174103 78.27003 
L 137.564764 87.660691 
L 136.144327 89.081127 
"/>
    <path clip-path="url(#p9074576c24)" d="M 169.811461 88.887669 
L 162.978752 77.49982 
L 161.77298 79.394605 
L 159.189182 69.231667 
L 166.940575 76.294047 
L 164.701284 76.466301 
L 171.533993 87.85415 
L 169.811461 88.887669 
"/>
    <path clip-path="url(#p9074576c24)" d="M 203.506014 88.567888 
L 200.901513 75.545385 
L 199.128702 76.924238 
L 200.113597 66.484348 
L 205.038073 75.742364 
L 202.871304 75.151426 
L 205.475804 88.17393 
L 203.506014 88.567888 
"/>
    <path clip-path="url(#p9074576c24)" d="M 237.324196 88.17393 
L 239.928696 75.151426 
L 237.761927 75.742364 
L 242.686403 66.484348 
L 243.671298 76.924238 
L 241.898487 75.545385 
L 239.293986 88.567888 
L 237.324196 88.17393 
"/>
    <path clip-path="url(#p9074576c24)" d="M 271.266007 87.85415 
L 278.098716 76.466301 
L 275.859425 76.294047 
L 283.610818 69.231667 
L 281.02702 79.394605 
L 279.821248 77.49982 
L 272.988539 88.887669 
L 271.266007 87.85415 
"/>
    <path clip-path="url(#p9074576c24)" d="M 305.235236 87.660691 
L 314.625897 78.27003 
L 312.495243 77.559812 
L 321.728078 72.588286 
L 316.756552 81.82112 
L 316.046333 79.690466 
L 306.655673 89.081127 
L 305.235236 87.660691 
"/>
    <path clip-path="url(#p9074576c24)" d="M 339.179841 87.553595 
L 349.986547 79.834519 
L 348.001642 78.783687 
L 357.926167 75.397673 
L 351.504415 83.687571 
L 351.154138 81.469147 
L 340.347432 89.188223 
L 339.179841 87.553595 
"/>
    <path clip-path="url(#p9074576c24)" d="M 373.094038 87.492906 
L 384.703197 81.043373 
L 382.849634 79.775146 
L 393.093009 77.531359 
L 385.776312 85.043167 
L 385.678756 82.79938 
L 374.069598 89.248913 
L 373.094038 87.492906 
"/>
    <path clip-path="url(#p9074576c24)" d="M 68.60154 67.200098 
L 58.118627 59.046721 
L 57.678168 61.249014 
L 51.59984 52.704118 
L 61.37802 56.492062 
L 59.351911 57.46107 
L 69.834824 65.614447 
L 68.60154 67.200098 
"/>
    <path clip-path="url(#p9074576c24)" d="M 102.326146 67.117491 
L 92.935485 57.72683 
L 92.225267 59.857484 
L 87.25374 50.624649 
L 96.486575 55.596176 
L 94.355921 56.306394 
L 103.746582 65.697055 
L 102.326146 67.117491 
"/>
    <path clip-path="url(#p9074576c24)" d="M 136.037232 66.991068 
L 128.318156 56.184362 
L 127.267324 58.169268 
L 123.881309 48.244742 
L 132.171207 54.666494 
L 129.952784 55.016771 
L 137.671859 65.823477 
L 136.037232 66.991068 
"/>
    <path clip-path="url(#p9074576c24)" d="M 169.749538 66.802925 
L 164.518132 54.596312 
L 163.067406 56.310806 
L 161.880449 45.891956 
L 168.606542 53.936891 
L 166.364511 53.805007 
L 171.595917 66.01162 
L 169.749538 66.802925 
"/>
    <path clip-path="url(#p9074576c24)" d="M 203.496604 66.549316 
L 201.618472 53.402391 
L 199.771905 54.680784 
L 201.334384 44.3116 
L 205.737736 53.828522 
L 203.607082 53.118304 
L 205.485214 66.265229 
L 203.496604 66.549316 
"/>
    <path clip-path="url(#p9074576c24)" d="M 237.314786 66.265229 
L 239.192918 53.118304 
L 237.062264 53.828522 
L 241.465616 44.3116 
L 243.028095 54.680784 
L 241.181528 53.402391 
L 239.303396 66.549316 
L 237.314786 66.265229 
"/>
    <path clip-path="url(#p9074576c24)" d="M 271.204083 66.01162 
L 276.435489 53.805007 
L 274.193458 53.936891 
L 280.919551 45.891956 
L 279.732594 56.310806 
L 278.281868 54.596312 
L 273.050462 66.802925 
L 271.204083 66.01162 
"/>
    <path clip-path="url(#p9074576c24)" d="M 305.128141 65.823477 
L 312.847216 55.016771 
L 310.628793 54.666494 
L 318.918691 48.244742 
L 315.532676 58.169268 
L 314.481844 56.184362 
L 306.762768 66.991068 
L 305.128141 65.823477 
"/>
    <path clip-path="url(#p9074576c24)" d="M 339.053418 65.697055 
L 348.444079 56.306394 
L 346.313425 55.596176 
L 355.54626 50.624649 
L 350.574733 59.857484 
L 349.864515 57.72683 
L 340.473854 67.117491 
L 339.053418 65.697055 
"/>
    <path clip-path="url(#p9074576c24)" d="M 372.965176 65.614447 
L 383.448089 57.46107 
L 381.42198 56.492062 
L 391.20016 52.704118 
L 385.121832 61.249014 
L 384.681373 59.046721 
L 374.19846 67.200098 
L 372.965176 65.614447 
"/>
    <path clip-path="url(#p9074576c24)" d="M 68.507964 45.153854 
L 59.117303 35.763194 
L 58.407085 37.893848 
L 53.435558 28.661013 
L 62.668393 33.632539 
L 60.537739 34.342757 
L 69.9284 43.733418 
L 68.507964 45.153854 
"/>
    <path clip-path="url(#p9074576c24)" d="M 102.243538 45.060278 
L 94.090161 34.577365 
L 93.121153 36.603474 
L 89.333209 26.825295 
L 97.878105 32.903623 
L 95.675812 33.344081 
L 103.829189 43.826994 
L 102.243538 45.060278 
"/>
    <path clip-path="url(#p9074576c24)" d="M 135.976542 44.931416 
L 129.52701 33.322258 
L 128.258782 35.175821 
L 126.014995 24.932446 
L 133.526804 32.249142 
L 131.283017 32.346698 
L 137.732549 43.955857 
L 135.976542 44.931416 
"/>
    <path clip-path="url(#p9074576c24)" d="M 169.71987 44.761256 
L 165.520239 32.162362 
L 163.932143 33.750458 
L 163.614524 23.269025 
L 169.649288 31.844743 
L 167.425954 31.527124 
L 171.625585 44.126017 
L 169.71987 44.761256 
"/>
    <path clip-path="url(#p9074576c24)" d="M 203.492652 44.554554 
L 202.026077 31.35538 
L 200.140481 32.575472 
L 202.026077 22.260151 
L 206.130022 31.909967 
L 204.022591 31.133545 
L 205.489166 44.332719 
L 203.492652 44.554554 
"/>
    <path clip-path="url(#p9074576c24)" d="M 237.310834 44.332719 
L 238.777409 31.133545 
L 236.669978 31.909967 
L 240.773923 22.260151 
L 242.659519 32.575472 
L 240.773923 31.35538 
L 239.307348 44.554554 
L 237.310834 44.332719 
"/>
    <path clip-path="url(#p9074576c24)" d="M 271.174415 44.126017 
L 275.374046 31.527124 
L 273.150712 31.844743 
L 279.185476 23.269025 
L 278.867857 33.750458 
L 277.279761 32.162362 
L 273.08013 44.761256 
L 271.174415 44.126017 
"/>
    <path clip-path="url(#p9074576c24)" d="M 305.067451 43.955857 
L 311.516983 32.346698 
L 309.273196 32.249142 
L 316.785005 24.932446 
L 314.541218 35.175821 
L 313.27299 33.322258 
L 306.823458 44.931416 
L 305.067451 43.955857 
"/>
    <path clip-path="url(#p9074576c24)" d="M 338.970811 43.826994 
L 347.124188 33.344081 
L 344.921895 32.903623 
L 353.466791 26.825295 
L 349.678847 36.603474 
L 348.709839 34.577365 
L 340.556462 45.060278 
L 338.970811 43.826994 
"/>
    <path clip-path="url(#p9074576c24)" d="M 372.8716 43.733418 
L 382.262261 34.342757 
L 380.131607 33.632539 
L 389.364442 28.661013 
L 384.392915 37.893848 
L 383.682697 35.763194 
L 374.292036 45.153854 
L 372.8716 43.733418 
"/>
   </g>
  </g>
 </g>
 <defs>
  <clipPath id="p9074576c24">
   <rect height="217.44" width="334.8" x="54" y="34.56"/>
  </clipPath>
 </defs>
</svg>
