<?xml version="1.0" encoding="utf-8" standalone="no"?>
<!DOCTYPE svg PUBLIC "-//W3C//DTD SVG 1.1//EN"
  "http://www.w3.org/Graphics/SVG/1.1/DTD/svg11.dtd">
<!-- Created with matplotlib (https://matplotlib.org/) -->
<svg height="288pt" version="1.1" viewBox="0 0 432 288" width="432pt" xmlns="http://www.w3.org/2000/svg" xmlns:xlink="http://www.w3.org/1999/xlink">
 <metadata>
  <rdf:RDF xmlns:cc="http://creativecommons.org/ns#" xmlns:dc="http://purl.org/dc/elements/1.1/" xmlns:rdf="http://www.w3.org/1999/02/22-rdf-syntax-ns#">
   <cc:Work>
    <dc:type rdf:resource="http://purl.org/dc/dcmitype/StillImage"/>
    <dc:date>2021-03-10T09:05:43.211571</dc:date>
    <dc:format>image/svg+xml</dc:format>
    <dc:creator>
     <cc:Agent>
      <dc:title>Matplotlib v3.3.3, https://matplotlib.org/</dc:title>
     </cc:Agent>
    </dc:creator>
   </cc:Work>
  </rdf:RDF>
 </metadata>
 <defs>
  <style type="text/css">*{stroke-linecap:butt;stroke-linejoin:round;}</style>
 </defs>
 <g id="figure_1">
  <g id="patch_1">
   <path d="M 0 288 
L 432 288 
L 432 0 
L 0 0 
z
" style="fill:#ffffff;"/>
  </g>
  <g id="patch_2">
   <path d="M 112.68 252 
L 330.12 252 
L 330.12 34.56 
L 112.68 34.56 
z
" style="fill:#ffffff;"/>
  </g>
  <g id="pane3d_1">
   <g id="patch_3">
    <path d="M 262.80079 124.295954 
L 313.879553 207.317627 
L 319.323032 126.234731 
L 264.944446 45.333694 
" style="fill:#f2f2f2;opacity:0.5;stroke:#f2f2f2;stroke-linejoin:miter;"/>
   </g>
  </g>
  <g id="pane3d_2">
   <g id="patch_4">
    <path d="M 262.80079 124.295954 
L 139.419077 152.95363 
L 134.538366 73.172007 
L 264.944446 45.333694 
" style="fill:#e6e6e6;opacity:0.5;stroke:#e6e6e6;stroke-linejoin:miter;"/>
   </g>
  </g>
  <g id="pane3d_3">
   <g id="patch_5">
    <path d="M 262.80079 124.295954 
L 139.419077 152.95363 
L 181.242382 241.175351 
L 313.879553 207.317627 
" style="fill:#ececec;opacity:0.5;stroke:#ececec;stroke-linejoin:miter;"/>
   </g>
  </g>
  <g id="axis3d_1">
   <g id="line2d_1">
    <path d="M 313.879553 207.317627 
L 181.242382 241.175351 
" style="fill:none;stroke:#000000;stroke-linecap:square;stroke-width:0.8;"/>
   </g>
   <g id="text_1">
    <!-- z -->
    <g transform="translate(256.925005 264.432904)scale(0.1 -0.1)">
     <defs>
      <path d="M 5.515625 54.6875 
L 48.1875 54.6875 
L 48.1875 46.484375 
L 14.40625 7.171875 
L 48.1875 7.171875 
L 48.1875 0 
L 4.296875 0 
L 4.296875 8.203125 
L 38.09375 47.515625 
L 5.515625 47.515625 
z
" id="DejaVuSans-122"/>
     </defs>
     <use xlink:href="#DejaVuSans-122"/>
    </g>
   </g>
   <g id="Line3DCollection_1">
    <path d="M 311.307829 207.9741 
L 260.402577 124.852983 
L 262.413791 45.873923 
" style="fill:none;stroke:#b0b0b0;stroke-width:0.8;"/>
    <path d="M 280.1952 215.916088 
L 231.407741 131.587568 
L 231.804871 52.408133 
" style="fill:none;stroke:#b0b0b0;stroke-width:0.8;"/>
    <path d="M 248.610079 223.978687 
L 202.00779 138.416248 
L 200.744083 59.038805 
" style="fill:none;stroke:#b0b0b0;stroke-width:0.8;"/>
    <path d="M 216.541621 232.164665 
L 172.194174 145.34101 
L 169.221345 65.768092 
" style="fill:none;stroke:#b0b0b0;stroke-width:0.8;"/>
    <path d="M 183.978644 240.476877 
L 141.958101 152.363895 
L 137.226275 72.598208 
" style="fill:none;stroke:#b0b0b0;stroke-width:0.8;"/>
   </g>
   <g id="xtick_1">
    <g id="line2d_2">
     <path d="M 310.866019 207.252686 
L 312.193267 209.419895 
" style="fill:none;stroke:#000000;stroke-linecap:square;stroke-width:0.8;"/>
    </g>
   </g>
   <g id="xtick_2">
    <g id="line2d_3">
     <path d="M 279.771521 215.183764 
L 281.044315 217.383772 
" style="fill:none;stroke:#000000;stroke-linecap:square;stroke-width:0.8;"/>
    </g>
   </g>
   <g id="xtick_3">
    <g id="line2d_4">
     <path d="M 248.205135 223.235203 
L 249.42166 225.46876 
" style="fill:none;stroke:#000000;stroke-linecap:square;stroke-width:0.8;"/>
    </g>
   </g>
   <g id="xtick_4">
    <g id="line2d_5">
     <path d="M 216.156036 231.409765 
L 217.314414 233.677644 
" style="fill:none;stroke:#000000;stroke-linecap:square;stroke-width:0.8;"/>
    </g>
   </g>
   <g id="xtick_5">
    <g id="line2d_6">
     <path d="M 183.613066 239.710295 
L 184.711352 242.013294 
" style="fill:none;stroke:#000000;stroke-linecap:square;stroke-width:0.8;"/>
    </g>
   </g>
  </g>
  <g id="axis3d_2">
   <g id="line2d_7">
    <path d="M 139.419077 152.95363 
L 181.242382 241.175351 
" style="fill:none;stroke:#000000;stroke-linecap:square;stroke-width:0.8;"/>
   </g>
   <g id="text_2">
    <!-- y -->
    <g transform="translate(128.368 221.728887)scale(0.1 -0.1)">
     <defs>
      <path d="M 32.171875 -5.078125 
Q 28.375 -14.84375 24.75 -17.8125 
Q 21.140625 -20.796875 15.09375 -20.796875 
L 7.90625 -20.796875 
L 7.90625 -13.28125 
L 13.1875 -13.28125 
Q 16.890625 -13.28125 18.9375 -11.515625 
Q 21 -9.765625 23.484375 -3.21875 
L 25.09375 0.875 
L 2.984375 54.6875 
L 12.5 54.6875 
L 29.59375 11.921875 
L 46.6875 54.6875 
L 56.203125 54.6875 
z
" id="DejaVuSans-121"/>
     </defs>
     <use xlink:href="#DejaVuSans-121"/>
    </g>
   </g>
   <g id="Line3DCollection_2">
    <path d="M 265.943172 46.819536 
L 263.743323 125.827915 
L 140.188909 154.577507 
" style="fill:none;stroke:#b0b0b0;stroke-width:0.8;"/>
    <path d="M 278.192934 65.043961 
L 275.290381 144.596109 
L 149.626018 174.484063 
" style="fill:none;stroke:#b0b0b0;stroke-width:0.8;"/>
    <path d="M 290.953267 84.027982 
L 287.292272 164.103572 
L 159.446294 195.198869 
" style="fill:none;stroke:#b0b0b0;stroke-width:0.8;"/>
    <path d="M 304.256773 103.8201 
L 299.776409 184.39486 
L 169.673557 216.77217 
" style="fill:none;stroke:#b0b0b0;stroke-width:0.8;"/>
    <path d="M 318.138886 124.473034 
L 312.772453 205.518186 
L 180.333642 239.258462 
" style="fill:none;stroke:#b0b0b0;stroke-width:0.8;"/>
   </g>
   <g id="xtick_6">
    <g id="line2d_8">
     <path d="M 141.206347 154.340761 
L 138.152586 155.051334 
" style="fill:none;stroke:#000000;stroke-linecap:square;stroke-width:0.8;"/>
    </g>
   </g>
   <g id="xtick_7">
    <g id="line2d_9">
     <path d="M 150.661418 174.237804 
L 147.553717 174.976939 
" style="fill:none;stroke:#000000;stroke-linecap:square;stroke-width:0.8;"/>
    </g>
   </g>
   <g id="xtick_8">
    <g id="line2d_10">
     <path d="M 160.50029 194.942511 
L 157.336742 195.711964 
" style="fill:none;stroke:#000000;stroke-linecap:square;stroke-width:0.8;"/>
    </g>
   </g>
   <g id="xtick_9">
    <g id="line2d_11">
     <path d="M 170.746818 216.505079 
L 167.525414 217.306755 
" style="fill:none;stroke:#000000;stroke-linecap:square;stroke-width:0.8;"/>
    </g>
   </g>
   <g id="xtick_10">
    <g id="line2d_12">
     <path d="M 181.426872 238.97995 
L 178.145497 239.815917 
" style="fill:none;stroke:#000000;stroke-linecap:square;stroke-width:0.8;"/>
    </g>
   </g>
  </g>
  <g id="axis3d_3">
   <g id="line2d_13">
    <path d="M 139.419077 152.95363 
L 134.538366 73.172007 
" style="fill:none;stroke:#000000;stroke-linecap:square;stroke-width:0.8;"/>
   </g>
   <g id="Line3DCollection_3">
    <path d="M 139.28268 150.724041 
L 262.860792 122.085726 
L 314.031214 205.058563 
" style="fill:none;stroke:#b0b0b0;stroke-width:0.8;"/>
    <path d="M 138.393264 136.185377 
L 263.251923 107.678304 
L 315.020817 190.318009 
" style="fill:none;stroke:#b0b0b0;stroke-width:0.8;"/>
    <path d="M 137.485051 121.339442 
L 263.651078 92.975315 
L 316.032501 175.248553 
" style="fill:none;stroke:#b0b0b0;stroke-width:0.8;"/>
    <path d="M 136.557438 106.17639 
L 264.058506 77.967568 
L 317.067014 159.839063 
" style="fill:none;stroke:#b0b0b0;stroke-width:0.8;"/>
    <path d="M 135.609797 90.685953 
L 264.474468 62.64549 
L 318.125135 144.0779 
" style="fill:none;stroke:#b0b0b0;stroke-width:0.8;"/>
    <path d="M 134.641472 74.857411 
L 264.899234 46.9991 
L 319.207684 127.952886 
" style="fill:none;stroke:#b0b0b0;stroke-width:0.8;"/>
   </g>
   <g id="xtick_11">
    <g id="line2d_14">
     <path d="M 140.300313 150.488212 
L 137.245968 151.196034 
" style="fill:none;stroke:#000000;stroke-linecap:square;stroke-width:0.8;"/>
    </g>
   </g>
   <g id="xtick_12">
    <g id="line2d_15">
     <path d="M 139.421749 135.950559 
L 136.334819 136.65535 
" style="fill:none;stroke:#000000;stroke-linecap:square;stroke-width:0.8;"/>
    </g>
   </g>
   <g id="xtick_13">
    <g id="line2d_16">
     <path d="M 138.524621 121.10573 
L 135.404403 121.807204 
" style="fill:none;stroke:#000000;stroke-linecap:square;stroke-width:0.8;"/>
    </g>
   </g>
   <g id="xtick_14">
    <g id="line2d_17">
     <path d="M 137.608334 105.943886 
L 134.454104 106.64174 
" style="fill:none;stroke:#000000;stroke-linecap:square;stroke-width:0.8;"/>
    </g>
   </g>
   <g id="xtick_15">
    <g id="line2d_18">
     <path d="M 136.672269 90.454763 
L 133.483277 91.148676 
" style="fill:none;stroke:#000000;stroke-linecap:square;stroke-width:0.8;"/>
    </g>
   </g>
   <g id="xtick_16">
    <g id="line2d_19">
     <path d="M 135.715778 74.627648 
L 132.491249 75.31728 
" style="fill:none;stroke:#000000;stroke-linecap:square;stroke-width:0.8;"/>
    </g>
   </g>
  </g>
  <g id="axes_1">
   <g id="Line3DCollection_4">
    <path clip-path="url(#pe32f52b6e8)" d="M 261.799955 108.873383 
L 261.399715 124.174976 
" style="fill:none;stroke:#1f77b4;stroke-width:1.5;"/>
    <path clip-path="url(#pe32f52b6e8)" d="M 245.088267 110.360909 
L 244.832134 128.021332 
" style="fill:none;stroke:#1f77b4;stroke-width:1.5;"/>
    <path clip-path="url(#pe32f52b6e8)" d="M 228.186516 111.892171 
L 228.132648 131.898311 
" style="fill:none;stroke:#1f77b4;stroke-width:1.5;"/>
    <path clip-path="url(#pe32f52b6e8)" d="M 211.099276 114.207944 
L 211.299675 135.806281 
" style="fill:none;stroke:#1f77b4;stroke-width:1.5;"/>
    <path clip-path="url(#pe32f52b6e8)" d="M 193.868539 118.120063 
L 194.33161 139.745614 
" style="fill:none;stroke:#1f77b4;stroke-width:1.5;"/>
    <path clip-path="url(#pe32f52b6e8)" d="M 176.54977 123.635108 
L 177.226817 143.71669 
" style="fill:none;stroke:#1f77b4;stroke-width:1.5;"/>
    <path clip-path="url(#pe32f52b6e8)" d="M 159.162853 129.94895 
L 159.98364 147.719893 
" style="fill:none;stroke:#1f77b4;stroke-width:1.5;"/>
    <path clip-path="url(#pe32f52b6e8)" d="M 141.692295 136.320558 
L 142.600391 151.755616 
" style="fill:none;stroke:#1f77b4;stroke-width:1.5;"/>
    <path clip-path="url(#pe32f52b6e8)" d="M 268.481 117.116818 
L 267.93231 134.816485 
" style="fill:none;stroke:#1f77b4;stroke-width:1.5;"/>
    <path clip-path="url(#pe32f52b6e8)" d="M 251.622682 117.129159 
L 251.208443 138.747863 
" style="fill:none;stroke:#1f77b4;stroke-width:1.5;"/>
    <path clip-path="url(#pe32f52b6e8)" d="M 234.538509 116.374897 
L 234.349956 142.710887 
" style="fill:none;stroke:#1f77b4;stroke-width:1.5;"/>
    <path clip-path="url(#pe32f52b6e8)" d="M 217.203788 116.469898 
L 217.355214 146.705941 
" style="fill:none;stroke:#1f77b4;stroke-width:1.5;"/>
    <path clip-path="url(#pe32f52b6e8)" d="M 199.697455 120.459713 
L 200.222561 150.733414 
" style="fill:none;stroke:#1f77b4;stroke-width:1.5;"/>
    <path clip-path="url(#pe32f52b6e8)" d="M 182.16112 128.360093 
L 182.95031 154.793704 
" style="fill:none;stroke:#1f77b4;stroke-width:1.5;"/>
    <path clip-path="url(#pe32f52b6e8)" d="M 164.611408 137.136299 
L 165.536748 158.887213 
" style="fill:none;stroke:#1f77b4;stroke-width:1.5;"/>
    <path clip-path="url(#pe32f52b6e8)" d="M 146.991068 145.164428 
L 147.980134 163.014349 
" style="fill:none;stroke:#1f77b4;stroke-width:1.5;"/>
    <path clip-path="url(#pe32f52b6e8)" d="M 275.333739 125.600245 
L 274.609817 145.694055 
" style="fill:none;stroke:#1f77b4;stroke-width:1.5;"/>
    <path clip-path="url(#pe32f52b6e8)" d="M 258.36013 123.320068 
L 257.726772 149.713305 
" style="fill:none;stroke:#1f77b4;stroke-width:1.5;"/>
    <path clip-path="url(#pe32f52b6e8)" d="M 241.13788 117.186024 
L 240.706305 153.76527 
" style="fill:none;stroke:#1f77b4;stroke-width:1.5;"/>
    <path clip-path="url(#pe32f52b6e8)" d="M 223.518351 108.264857 
L 223.54673 157.850352 
" style="fill:none;stroke:#1f77b4;stroke-width:1.5;"/>
    <path clip-path="url(#pe32f52b6e8)" d="M 205.595018 112.320948 
L 206.246336 161.968958 
" style="fill:none;stroke:#1f77b4;stroke-width:1.5;"/>
    <path clip-path="url(#pe32f52b6e8)" d="M 187.854536 129.40798 
L 188.803382 166.121502 
" style="fill:none;stroke:#1f77b4;stroke-width:1.5;"/>
    <path clip-path="url(#pe32f52b6e8)" d="M 170.187151 143.75754 
L 171.216098 170.308406 
" style="fill:none;stroke:#1f77b4;stroke-width:1.5;"/>
    <path clip-path="url(#pe32f52b6e8)" d="M 152.432233 154.270786 
L 153.482686 174.530098 
" style="fill:none;stroke:#1f77b4;stroke-width:1.5;"/>
    <path clip-path="url(#pe32f52b6e8)" d="M 282.333772 135.077732 
L 281.437112 156.815629 
" style="fill:none;stroke:#1f77b4;stroke-width:1.5;"/>
    <path clip-path="url(#pe32f52b6e8)" d="M 265.273173 130.559865 
L 264.391918 160.92573 
" style="fill:none;stroke:#1f77b4;stroke-width:1.5;"/>
    <path clip-path="url(#pe32f52b6e8)" d="M 248.032291 115.375378 
L 247.206412 165.069665 
" style="fill:none;stroke:#1f77b4;stroke-width:1.5;"/>
    <path clip-path="url(#pe32f52b6e8)" d="M 230.349286 52.769054 
L 229.878855 169.247852 
" style="fill:none;stroke:#1f77b4;stroke-width:1.5;"/>
    <path clip-path="url(#pe32f52b6e8)" d="M 211.389887 56.816619 
L 212.407479 173.460718 
" style="fill:none;stroke:#1f77b4;stroke-width:1.5;"/>
    <path clip-path="url(#pe32f52b6e8)" d="M 193.709534 127.832782 
L 194.790485 177.708698 
" style="fill:none;stroke:#1f77b4;stroke-width:1.5;"/>
    <path clip-path="url(#pe32f52b6e8)" d="M 175.962812 151.450138 
L 177.026046 181.99223 
" style="fill:none;stroke:#1f77b4;stroke-width:1.5;"/>
    <path clip-path="url(#pe32f52b6e8)" d="M 158.057394 164.401119 
L 159.112302 186.311764 
" style="fill:none;stroke:#1f77b4;stroke-width:1.5;"/>
    <path clip-path="url(#pe32f52b6e8)" d="M 289.437196 146.38179 
L 288.419294 168.189509 
" style="fill:none;stroke:#1f77b4;stroke-width:1.5;"/>
    <path clip-path="url(#pe32f52b6e8)" d="M 272.252147 141.929395 
L 271.208897 172.393578 
" style="fill:none;stroke:#1f77b4;stroke-width:1.5;"/>
    <path clip-path="url(#pe32f52b6e8)" d="M 254.933848 126.771758 
L 253.85521 176.632649 
" style="fill:none;stroke:#1f77b4;stroke-width:1.5;"/>
    <path clip-path="url(#pe32f52b6e8)" d="M 237.389591 63.977869 
L 236.356434 180.907161 
" style="fill:none;stroke:#1f77b4;stroke-width:1.5;"/>
    <path clip-path="url(#pe32f52b6e8)" d="M 218.224744 68.127266 
L 218.710742 185.217562 
" style="fill:none;stroke:#1f77b4;stroke-width:1.5;"/>
    <path clip-path="url(#pe32f52b6e8)" d="M 200.049133 139.528251 
L 200.916276 189.564304 
" style="fill:none;stroke:#1f77b4;stroke-width:1.5;"/>
    <path clip-path="url(#pe32f52b6e8)" d="M 182.030457 163.314306 
L 182.971147 193.947849 
" style="fill:none;stroke:#1f77b4;stroke-width:1.5;"/>
    <path clip-path="url(#pe32f52b6e8)" d="M 163.900284 176.395214 
L 164.873433 198.368667 
" style="fill:none;stroke:#1f77b4;stroke-width:1.5;"/>
    <path clip-path="url(#pe32f52b6e8)" d="M 296.623156 159.537293 
L 295.561692 179.824381 
" style="fill:none;stroke:#1f77b4;stroke-width:1.5;"/>
    <path clip-path="url(#pe32f52b6e8)" d="M 279.240357 157.478053 
L 278.182959 184.125677 
" style="fill:none;stroke:#1f77b4;stroke-width:1.5;"/>
    <path clip-path="url(#pe32f52b6e8)" d="M 261.649647 151.527133 
L 260.65786 188.463198 
" style="fill:none;stroke:#1f77b4;stroke-width:1.5;"/>
    <path clip-path="url(#pe32f52b6e8)" d="M 243.677125 142.758889 
L 242.984536 192.837406 
" style="fill:none;stroke:#1f77b4;stroke-width:1.5;"/>
    <path clip-path="url(#pe32f52b6e8)" d="M 225.191793 147.114215 
L 225.1611 197.248767 
" style="fill:none;stroke:#1f77b4;stroke-width:1.5;"/>
    <path clip-path="url(#pe32f52b6e8)" d="M 206.711076 164.642174 
L 207.18563 201.697757 
" style="fill:none;stroke:#1f77b4;stroke-width:1.5;"/>
    <path clip-path="url(#pe32f52b6e8)" d="M 188.348167 179.397752 
L 189.056174 206.184859 
" style="fill:none;stroke:#1f77b4;stroke-width:1.5;"/>
    <path clip-path="url(#pe32f52b6e8)" d="M 169.947999 190.277596 
L 170.770743 210.710565 
" style="fill:none;stroke:#1f77b4;stroke-width:1.5;"/>
    <path clip-path="url(#pe32f52b6e8)" d="M 303.916439 173.747278 
L 302.869886 191.729332 
" style="fill:none;stroke:#1f77b4;stroke-width:1.5;"/>
    <path clip-path="url(#pe32f52b6e8)" d="M 286.315387 174.169126 
L 285.319596 196.131266 
" style="fill:none;stroke:#1f77b4;stroke-width:1.5;"/>
    <path clip-path="url(#pe32f52b6e8)" d="M 268.483563 173.817351 
L 267.619764 200.570709 
" style="fill:none;stroke:#1f77b4;stroke-width:1.5;"/>
    <path clip-path="url(#pe32f52b6e8)" d="M 250.353065 174.335245 
L 249.768471 205.048141 
" style="fill:none;stroke:#1f77b4;stroke-width:1.5;"/>
    <path clip-path="url(#pe32f52b6e8)" d="M 231.93521 178.820405 
L 231.763763 209.564052 
" style="fill:none;stroke:#1f77b4;stroke-width:1.5;"/>
    <path clip-path="url(#pe32f52b6e8)" d="M 213.386584 187.286175 
L 213.603654 214.11894 
" style="fill:none;stroke:#1f77b4;stroke-width:1.5;"/>
    <path clip-path="url(#pe32f52b6e8)" d="M 194.801265 196.644158 
L 195.286125 218.713312 
" style="fill:none;stroke:#1f77b4;stroke-width:1.5;"/>
    <path clip-path="url(#pe32f52b6e8)" d="M 176.156152 205.244535 
L 176.809119 223.347684 
" style="fill:none;stroke:#1f77b4;stroke-width:1.5;"/>
    <path clip-path="url(#pe32f52b6e8)" d="M 311.35583 188.272536 
L 310.349716 203.913876 
" style="fill:none;stroke:#1f77b4;stroke-width:1.5;"/>
    <path clip-path="url(#pe32f52b6e8)" d="M 293.549414 190.370857 
L 292.62456 208.420023 
" style="fill:none;stroke:#1f77b4;stroke-width:1.5;"/>
    <path clip-path="url(#pe32f52b6e8)" d="M 275.522478 192.522485 
L 274.746582 212.965021 
" style="fill:none;stroke:#1f77b4;stroke-width:1.5;"/>
    <path clip-path="url(#pe32f52b6e8)" d="M 257.253519 195.485348 
L 256.713798 217.549375 
" style="fill:none;stroke:#1f77b4;stroke-width:1.5;"/>
    <path clip-path="url(#pe32f52b6e8)" d="M 238.761722 200.089451 
L 238.524189 222.173597 
" style="fill:none;stroke:#1f77b4;stroke-width:1.5;"/>
    <path clip-path="url(#pe32f52b6e8)" d="M 220.110775 206.340038 
L 220.1757 226.83821 
" style="fill:none;stroke:#1f77b4;stroke-width:1.5;"/>
    <path clip-path="url(#pe32f52b6e8)" d="M 201.352345 213.413383 
L 201.66624 231.543745 
" style="fill:none;stroke:#1f77b4;stroke-width:1.5;"/>
    <path clip-path="url(#pe32f52b6e8)" d="M 182.494958 220.551743 
L 182.993681 236.290744 
" style="fill:none;stroke:#1f77b4;stroke-width:1.5;"/>
    <path clip-path="url(#pe32f52b6e8)" d="M 261.799955 108.873383 
L 262.361551 111.708513 
" style="fill:none;stroke:#1f77b4;stroke-width:1.5;"/>
    <path clip-path="url(#pe32f52b6e8)" d="M 261.799955 108.873383 
L 261.082177 112.001785 
" style="fill:none;stroke:#1f77b4;stroke-width:1.5;"/>
    <path clip-path="url(#pe32f52b6e8)" d="M 245.088267 110.360909 
L 245.781177 113.636999 
" style="fill:none;stroke:#1f77b4;stroke-width:1.5;"/>
    <path clip-path="url(#pe32f52b6e8)" d="M 245.088267 110.360909 
L 244.295136 113.976982 
" style="fill:none;stroke:#1f77b4;stroke-width:1.5;"/>
    <path clip-path="url(#pe32f52b6e8)" d="M 228.186516 111.892171 
L 229.022962 115.60781 
" style="fill:none;stroke:#1f77b4;stroke-width:1.5;"/>
    <path clip-path="url(#pe32f52b6e8)" d="M 228.186516 111.892171 
L 227.328677 115.994686 
" style="fill:none;stroke:#1f77b4;stroke-width:1.5;"/>
    <path clip-path="url(#pe32f52b6e8)" d="M 211.099276 114.207944 
L 212.058877 118.222116 
" style="fill:none;stroke:#1f77b4;stroke-width:1.5;"/>
    <path clip-path="url(#pe32f52b6e8)" d="M 211.099276 114.207944 
L 210.21766 118.641994 
" style="fill:none;stroke:#1f77b4;stroke-width:1.5;"/>
    <path clip-path="url(#pe32f52b6e8)" d="M 193.868539 118.120063 
L 194.887008 122.138059 
" style="fill:none;stroke:#1f77b4;stroke-width:1.5;"/>
    <path clip-path="url(#pe32f52b6e8)" d="M 193.868539 118.120063 
L 193.030801 122.561355 
" style="fill:none;stroke:#1f77b4;stroke-width:1.5;"/>
    <path clip-path="url(#pe32f52b6e8)" d="M 176.54977 123.635108 
L 177.549886 127.361272 
" style="fill:none;stroke:#1f77b4;stroke-width:1.5;"/>
    <path clip-path="url(#pe32f52b6e8)" d="M 176.54977 123.635108 
L 175.813917 127.757667 
" style="fill:none;stroke:#1f77b4;stroke-width:1.5;"/>
    <path clip-path="url(#pe32f52b6e8)" d="M 159.162853 129.94895 
L 160.096601 133.240295 
" style="fill:none;stroke:#1f77b4;stroke-width:1.5;"/>
    <path clip-path="url(#pe32f52b6e8)" d="M 159.162853 129.94895 
L 158.549208 133.594315 
" style="fill:none;stroke:#1f77b4;stroke-width:1.5;"/>
    <path clip-path="url(#pe32f52b6e8)" d="M 141.692295 136.320558 
L 142.546102 139.173908 
" style="fill:none;stroke:#1f77b4;stroke-width:1.5;"/>
    <path clip-path="url(#pe32f52b6e8)" d="M 141.692295 136.320558 
L 141.192275 139.484247 
" style="fill:none;stroke:#1f77b4;stroke-width:1.5;"/>
    <path clip-path="url(#pe32f52b6e8)" d="M 268.481 117.116818 
L 269.117889 120.398405 
" style="fill:none;stroke:#1f77b4;stroke-width:1.5;"/>
    <path clip-path="url(#pe32f52b6e8)" d="M 268.481 117.116818 
L 267.6297 120.743197 
" style="fill:none;stroke:#1f77b4;stroke-width:1.5;"/>
    <path clip-path="url(#pe32f52b6e8)" d="M 251.622682 117.129159 
L 252.456043 121.146195 
" style="fill:none;stroke:#1f77b4;stroke-width:1.5;"/>
    <path clip-path="url(#pe32f52b6e8)" d="M 251.622682 117.129159 
L 250.626887 121.568625 
" style="fill:none;stroke:#1f77b4;stroke-width:1.5;"/>
    <path clip-path="url(#pe32f52b6e8)" d="M 234.538509 116.374897 
L 235.622341 121.281806 
" style="fill:none;stroke:#1f77b4;stroke-width:1.5;"/>
    <path clip-path="url(#pe32f52b6e8)" d="M 234.538509 116.374897 
L 233.380124 121.797628 
" style="fill:none;stroke:#1f77b4;stroke-width:1.5;"/>
    <path clip-path="url(#pe32f52b6e8)" d="M 217.203788 116.469898 
L 218.528562 122.115853 
" style="fill:none;stroke:#1f77b4;stroke-width:1.5;"/>
    <path clip-path="url(#pe32f52b6e8)" d="M 217.203788 116.469898 
L 215.937745 122.709968 
" style="fill:none;stroke:#1f77b4;stroke-width:1.5;"/>
    <path clip-path="url(#pe32f52b6e8)" d="M 199.697455 120.459713 
L 201.106396 126.111034 
" style="fill:none;stroke:#1f77b4;stroke-width:1.5;"/>
    <path clip-path="url(#pe32f52b6e8)" d="M 199.697455 120.459713 
L 198.494143 126.710065 
" style="fill:none;stroke:#1f77b4;stroke-width:1.5;"/>
    <path clip-path="url(#pe32f52b6e8)" d="M 182.16112 128.360093 
L 183.464712 133.280667 
" style="fill:none;stroke:#1f77b4;stroke-width:1.5;"/>
    <path clip-path="url(#pe32f52b6e8)" d="M 182.16112 128.360093 
L 181.166501 133.809371 
" style="fill:none;stroke:#1f77b4;stroke-width:1.5;"/>
    <path clip-path="url(#pe32f52b6e8)" d="M 164.611408 137.136299 
L 165.745077 141.171435 
" style="fill:none;stroke:#1f77b4;stroke-width:1.5;"/>
    <path clip-path="url(#pe32f52b6e8)" d="M 164.611408 137.136299 
L 163.839364 141.611545 
" style="fill:none;stroke:#1f77b4;stroke-width:1.5;"/>
    <path clip-path="url(#pe32f52b6e8)" d="M 146.991068 145.164428 
L 147.971946 148.46619 
" style="fill:none;stroke:#1f77b4;stroke-width:1.5;"/>
    <path clip-path="url(#pe32f52b6e8)" d="M 146.991068 145.164428 
L 146.39603 148.831308 
" style="fill:none;stroke:#1f77b4;stroke-width:1.5;"/>
    <path clip-path="url(#pe32f52b6e8)" d="M 275.333739 125.600245 
L 276.041736 129.328088 
" style="fill:none;stroke:#1f77b4;stroke-width:1.5;"/>
    <path clip-path="url(#pe32f52b6e8)" d="M 275.333739 125.600245 
L 274.342453 129.726086 
" style="fill:none;stroke:#1f77b4;stroke-width:1.5;"/>
    <path clip-path="url(#pe32f52b6e8)" d="M 258.36013 123.320068 
L 259.358405 128.235037 
" style="fill:none;stroke:#1f77b4;stroke-width:1.5;"/>
    <path clip-path="url(#pe32f52b6e8)" d="M 258.36013 123.320068 
L 257.11281 128.758304 
" style="fill:none;stroke:#1f77b4;stroke-width:1.5;"/>
    <path clip-path="url(#pe32f52b6e8)" d="M 241.13788 117.186024 
L 242.617009 124.040672 
" style="fill:none;stroke:#1f77b4;stroke-width:1.5;"/>
    <path clip-path="url(#pe32f52b6e8)" d="M 241.13788 117.186024 
L 239.487307 124.763917 
" style="fill:none;stroke:#1f77b4;stroke-width:1.5;"/>
    <path clip-path="url(#pe32f52b6e8)" d="M 223.518351 108.264857 
L 225.655429 117.631857 
" style="fill:none;stroke:#1f77b4;stroke-width:1.5;"/>
    <path clip-path="url(#pe32f52b6e8)" d="M 223.518351 108.264857 
L 221.390396 118.607013 
" style="fill:none;stroke:#1f77b4;stroke-width:1.5;"/>
    <path clip-path="url(#pe32f52b6e8)" d="M 205.595018 112.320948 
L 207.87394 121.697413 
" style="fill:none;stroke:#1f77b4;stroke-width:1.5;"/>
    <path clip-path="url(#pe32f52b6e8)" d="M 205.595018 112.320948 
L 203.572821 122.68082 
" style="fill:none;stroke:#1f77b4;stroke-width:1.5;"/>
    <path clip-path="url(#pe32f52b6e8)" d="M 187.854536 129.40798 
L 189.645777 136.281829 
" style="fill:none;stroke:#1f77b4;stroke-width:1.5;"/>
    <path clip-path="url(#pe32f52b6e8)" d="M 187.854536 129.40798 
L 186.436548 137.023452 
" style="fill:none;stroke:#1f77b4;stroke-width:1.5;"/>
    <path clip-path="url(#pe32f52b6e8)" d="M 170.187151 143.75754 
L 171.55917 148.693965 
" style="fill:none;stroke:#1f77b4;stroke-width:1.5;"/>
    <path clip-path="url(#pe32f52b6e8)" d="M 170.187151 143.75754 
L 169.218234 149.239448 
" style="fill:none;stroke:#1f77b4;stroke-width:1.5;"/>
    <path clip-path="url(#pe32f52b6e8)" d="M 152.432233 154.270786 
L 153.537779 158.020425 
" style="fill:none;stroke:#1f77b4;stroke-width:1.5;"/>
    <path clip-path="url(#pe32f52b6e8)" d="M 152.432233 154.270786 
L 151.737013 158.442192 
" style="fill:none;stroke:#1f77b4;stroke-width:1.5;"/>
    <path clip-path="url(#pe32f52b6e8)" d="M 282.333772 135.077732 
L 283.082919 139.111128 
" style="fill:none;stroke:#1f77b4;stroke-width:1.5;"/>
    <path clip-path="url(#pe32f52b6e8)" d="M 282.333772 135.077732 
L 281.233395 139.549403 
" style="fill:none;stroke:#1f77b4;stroke-width:1.5;"/>
    <path clip-path="url(#pe32f52b6e8)" d="M 265.273173 130.559865 
L 266.39891 136.224106 
" style="fill:none;stroke:#1f77b4;stroke-width:1.5;"/>
    <path clip-path="url(#pe32f52b6e8)" d="M 265.273173 130.559865 
L 263.800118 136.835671 
" style="fill:none;stroke:#1f77b4;stroke-width:1.5;"/>
    <path clip-path="url(#pe32f52b6e8)" d="M 248.032291 115.375378 
L 250.002933 124.758802 
" style="fill:none;stroke:#1f77b4;stroke-width:1.5;"/>
    <path clip-path="url(#pe32f52b6e8)" d="M 248.032291 115.375378 
L 245.731144 125.748444 
" style="fill:none;stroke:#1f77b4;stroke-width:1.5;"/>
    <path clip-path="url(#pe32f52b6e8)" d="M 230.349286 52.769054 
L 235.242279 75.69391 
" style="fill:none;stroke:#1f77b4;stroke-width:1.5;"/>
    <path clip-path="url(#pe32f52b6e8)" d="M 230.349286 52.769054 
L 225.250423 77.883993 
" style="fill:none;stroke:#1f77b4;stroke-width:1.5;"/>
    <path clip-path="url(#pe32f52b6e8)" d="M 211.389887 56.816619 
L 216.63407 79.772583 
" style="fill:none;stroke:#1f77b4;stroke-width:1.5;"/>
    <path clip-path="url(#pe32f52b6e8)" d="M 211.389887 56.816619 
L 206.553471 81.982117 
" style="fill:none;stroke:#1f77b4;stroke-width:1.5;"/>
    <path clip-path="url(#pe32f52b6e8)" d="M 193.709534 127.832782 
L 196.114566 137.243089 
" style="fill:none;stroke:#1f77b4;stroke-width:1.5;"/>
    <path clip-path="url(#pe32f52b6e8)" d="M 193.709534 127.832782 
L 191.732128 138.258366 
" style="fill:none;stroke:#1f77b4;stroke-width:1.5;"/>
    <path clip-path="url(#pe32f52b6e8)" d="M 175.962812 151.450138 
L 177.526834 157.138087 
" style="fill:none;stroke:#1f77b4;stroke-width:1.5;"/>
    <path clip-path="url(#pe32f52b6e8)" d="M 175.962812 151.450138 
L 174.816147 157.775984 
" style="fill:none;stroke:#1f77b4;stroke-width:1.5;"/>
    <path clip-path="url(#pe32f52b6e8)" d="M 158.057394 164.401119 
L 159.244311 168.456653 
" style="fill:none;stroke:#1f77b4;stroke-width:1.5;"/>
    <path clip-path="url(#pe32f52b6e8)" d="M 158.057394 164.401119 
L 157.282916 168.921436 
" style="fill:none;stroke:#1f77b4;stroke-width:1.5;"/>
    <path clip-path="url(#pe32f52b6e8)" d="M 289.437196 146.38179 
L 290.171623 150.424395 
" style="fill:none;stroke:#1f77b4;stroke-width:1.5;"/>
    <path clip-path="url(#pe32f52b6e8)" d="M 289.437196 146.38179 
L 288.304036 150.872797 
" style="fill:none;stroke:#1f77b4;stroke-width:1.5;"/>
    <path clip-path="url(#pe32f52b6e8)" d="M 272.252147 141.929395 
L 273.358863 147.607043 
" style="fill:none;stroke:#1f77b4;stroke-width:1.5;"/>
    <path clip-path="url(#pe32f52b6e8)" d="M 272.252147 141.929395 
L 270.734316 148.232871 
" style="fill:none;stroke:#1f77b4;stroke-width:1.5;"/>
    <path clip-path="url(#pe32f52b6e8)" d="M 254.933848 126.771758 
L 256.875765 136.179869 
" style="fill:none;stroke:#1f77b4;stroke-width:1.5;"/>
    <path clip-path="url(#pe32f52b6e8)" d="M 254.933848 126.771758 
L 252.560752 137.19295 
" style="fill:none;stroke:#1f77b4;stroke-width:1.5;"/>
    <path clip-path="url(#pe32f52b6e8)" d="M 237.389591 63.977869 
L 242.219222 86.987313 
" style="fill:none;stroke:#1f77b4;stroke-width:1.5;"/>
    <path clip-path="url(#pe32f52b6e8)" d="M 237.389591 63.977869 
L 232.121412 89.231465 
" style="fill:none;stroke:#1f77b4;stroke-width:1.5;"/>
    <path clip-path="url(#pe32f52b6e8)" d="M 218.224744 68.127266 
L 223.413219 91.166787 
" style="fill:none;stroke:#1f77b4;stroke-width:1.5;"/>
    <path clip-path="url(#pe32f52b6e8)" d="M 218.224744 68.127266 
L 213.224617 93.431118 
" style="fill:none;stroke:#1f77b4;stroke-width:1.5;"/>
    <path clip-path="url(#pe32f52b6e8)" d="M 200.049133 139.528251 
L 202.434526 148.961609 
" style="fill:none;stroke:#1f77b4;stroke-width:1.5;"/>
    <path clip-path="url(#pe32f52b6e8)" d="M 200.049133 139.528251 
L 198.006402 150.001246 
" style="fill:none;stroke:#1f77b4;stroke-width:1.5;"/>
    <path clip-path="url(#pe32f52b6e8)" d="M 182.030457 163.314306 
L 183.584516 169.01391 
" style="fill:none;stroke:#1f77b4;stroke-width:1.5;"/>
    <path clip-path="url(#pe32f52b6e8)" d="M 182.030457 163.314306 
L 180.845612 169.667007 
" style="fill:none;stroke:#1f77b4;stroke-width:1.5;"/>
    <path clip-path="url(#pe32f52b6e8)" d="M 163.900284 176.395214 
L 165.08148 180.458162 
" style="fill:none;stroke:#1f77b4;stroke-width:1.5;"/>
    <path clip-path="url(#pe32f52b6e8)" d="M 163.900284 176.395214 
L 163.099573 180.934011 
" style="fill:none;stroke:#1f77b4;stroke-width:1.5;"/>
    <path clip-path="url(#pe32f52b6e8)" d="M 296.623156 159.537293 
L 297.290209 163.290388 
" style="fill:none;stroke:#1f77b4;stroke-width:1.5;"/>
    <path clip-path="url(#pe32f52b6e8)" d="M 296.623156 159.537293 
L 295.540697 163.716596 
" style="fill:none;stroke:#1f77b4;stroke-width:1.5;"/>
    <path clip-path="url(#pe32f52b6e8)" d="M 279.240357 157.478053 
L 280.188976 162.426985 
" style="fill:none;stroke:#1f77b4;stroke-width:1.5;"/>
    <path clip-path="url(#pe32f52b6e8)" d="M 279.240357 157.478053 
L 277.876099 162.987641 
" style="fill:none;stroke:#1f77b4;stroke-width:1.5;"/>
    <path clip-path="url(#pe32f52b6e8)" d="M 261.649647 151.527133 
L 263.065711 158.431435 
" style="fill:none;stroke:#1f77b4;stroke-width:1.5;"/>
    <path clip-path="url(#pe32f52b6e8)" d="M 261.649647 151.527133 
L 259.840743 159.206898 
" style="fill:none;stroke:#1f77b4;stroke-width:1.5;"/>
    <path clip-path="url(#pe32f52b6e8)" d="M 243.677125 142.758889 
L 245.736768 152.198241 
" style="fill:none;stroke:#1f77b4;stroke-width:1.5;"/>
    <path clip-path="url(#pe32f52b6e8)" d="M 243.677125 142.758889 
L 241.339621 153.244657 
" style="fill:none;stroke:#1f77b4;stroke-width:1.5;"/>
    <path clip-path="url(#pe32f52b6e8)" d="M 225.191793 147.114215 
L 227.402367 156.561391 
" style="fill:none;stroke:#1f77b4;stroke-width:1.5;"/>
    <path clip-path="url(#pe32f52b6e8)" d="M 225.191793 147.114215 
L 222.966672 157.616981 
" style="fill:none;stroke:#1f77b4;stroke-width:1.5;"/>
    <path clip-path="url(#pe32f52b6e8)" d="M 206.711076 164.642174 
L 208.459081 171.56192 
" style="fill:none;stroke:#1f77b4;stroke-width:1.5;"/>
    <path clip-path="url(#pe32f52b6e8)" d="M 206.711076 164.642174 
L 205.149202 172.3578 
" style="fill:none;stroke:#1f77b4;stroke-width:1.5;"/>
    <path clip-path="url(#pe32f52b6e8)" d="M 188.348167 179.397752 
L 189.694124 184.363505 
" style="fill:none;stroke:#1f77b4;stroke-width:1.5;"/>
    <path clip-path="url(#pe32f52b6e8)" d="M 188.348167 179.397752 
L 187.279489 184.948828 
" style="fill:none;stroke:#1f77b4;stroke-width:1.5;"/>
    <path clip-path="url(#pe32f52b6e8)" d="M 169.947999 190.277596 
L 171.037604 194.047467 
" style="fill:none;stroke:#1f77b4;stroke-width:1.5;"/>
    <path clip-path="url(#pe32f52b6e8)" d="M 169.947999 190.277596 
L 169.179803 194.500056 
" style="fill:none;stroke:#1f77b4;stroke-width:1.5;"/>
    <path clip-path="url(#pe32f52b6e8)" d="M 303.916439 173.747278 
L 304.493011 177.065223 
" style="fill:none;stroke:#1f77b4;stroke-width:1.5;"/>
    <path clip-path="url(#pe32f52b6e8)" d="M 303.916439 173.747278 
L 302.930879 177.451649 
" style="fill:none;stroke:#1f77b4;stroke-width:1.5;"/>
    <path clip-path="url(#pe32f52b6e8)" d="M 286.315387 174.169126 
L 287.080848 178.230769 
" style="fill:none;stroke:#1f77b4;stroke-width:1.5;"/>
    <path clip-path="url(#pe32f52b6e8)" d="M 286.315387 174.169126 
L 285.159684 178.704556 
" style="fill:none;stroke:#1f77b4;stroke-width:1.5;"/>
    <path clip-path="url(#pe32f52b6e8)" d="M 268.483563 173.817351 
L 269.491906 178.779191 
" style="fill:none;stroke:#1f77b4;stroke-width:1.5;"/>
    <path clip-path="url(#pe32f52b6e8)" d="M 268.483563 173.817351 
L 267.135455 179.358184 
" style="fill:none;stroke:#1f77b4;stroke-width:1.5;"/>
    <path clip-path="url(#pe32f52b6e8)" d="M 250.353065 174.335245 
L 251.599826 180.044502 
" style="fill:none;stroke:#1f77b4;stroke-width:1.5;"/>
    <path clip-path="url(#pe32f52b6e8)" d="M 250.353065 174.335245 
L 248.875378 180.711877 
" style="fill:none;stroke:#1f77b4;stroke-width:1.5;"/>
    <path clip-path="url(#pe32f52b6e8)" d="M 231.93521 178.820405 
L 233.2752 184.533266 
" style="fill:none;stroke:#1f77b4;stroke-width:1.5;"/>
    <path clip-path="url(#pe32f52b6e8)" d="M 231.93521 178.820405 
L 230.526852 185.206496 
" style="fill:none;stroke:#1f77b4;stroke-width:1.5;"/>
    <path clip-path="url(#pe32f52b6e8)" d="M 213.386584 187.286175 
L 214.638287 192.25703 
" style="fill:none;stroke:#1f77b4;stroke-width:1.5;"/>
    <path clip-path="url(#pe32f52b6e8)" d="M 213.386584 187.286175 
L 212.219421 192.851359 
" style="fill:none;stroke:#1f77b4;stroke-width:1.5;"/>
    <path clip-path="url(#pe32f52b6e8)" d="M 194.801265 196.644158 
L 195.89919 200.71746 
" style="fill:none;stroke:#1f77b4;stroke-width:1.5;"/>
    <path clip-path="url(#pe32f52b6e8)" d="M 194.801265 196.644158 
L 193.892715 201.212286 
" style="fill:none;stroke:#1f77b4;stroke-width:1.5;"/>
    <path clip-path="url(#pe32f52b6e8)" d="M 176.156152 205.244535 
L 177.113463 208.575195 
" style="fill:none;stroke:#1f77b4;stroke-width:1.5;"/>
    <path clip-path="url(#pe32f52b6e8)" d="M 176.156152 205.244535 
L 175.453593 208.985798 
" style="fill:none;stroke:#1f77b4;stroke-width:1.5;"/>
    <path clip-path="url(#pe32f52b6e8)" d="M 311.35583 188.272536 
L 311.844087 191.150713 
" style="fill:none;stroke:#1f77b4;stroke-width:1.5;"/>
    <path clip-path="url(#pe32f52b6e8)" d="M 311.35583 188.272536 
L 310.474954 191.494672 
" style="fill:none;stroke:#1f77b4;stroke-width:1.5;"/>
    <path clip-path="url(#pe32f52b6e8)" d="M 293.549414 190.370857 
L 294.164398 193.696181 
" style="fill:none;stroke:#1f77b4;stroke-width:1.5;"/>
    <path clip-path="url(#pe32f52b6e8)" d="M 293.549414 190.370857 
L 292.572894 194.095277 
" style="fill:none;stroke:#1f77b4;stroke-width:1.5;"/>
    <path clip-path="url(#pe32f52b6e8)" d="M 275.522478 192.522485 
L 276.278489 196.293354 
" style="fill:none;stroke:#1f77b4;stroke-width:1.5;"/>
    <path clip-path="url(#pe32f52b6e8)" d="M 275.522478 192.522485 
L 274.462575 196.747901 
" style="fill:none;stroke:#1f77b4;stroke-width:1.5;"/>
    <path clip-path="url(#pe32f52b6e8)" d="M 257.253519 195.485348 
L 258.135052 199.55813 
" style="fill:none;stroke:#1f77b4;stroke-width:1.5;"/>
    <path clip-path="url(#pe32f52b6e8)" d="M 257.253519 195.485348 
L 256.160192 200.05186 
" style="fill:none;stroke:#1f77b4;stroke-width:1.5;"/>
    <path clip-path="url(#pe32f52b6e8)" d="M 238.761722 200.089451 
L 239.711133 204.164245 
" style="fill:none;stroke:#1f77b4;stroke-width:1.5;"/>
    <path clip-path="url(#pe32f52b6e8)" d="M 238.761722 200.089451 
L 237.718828 204.662335 
" style="fill:none;stroke:#1f77b4;stroke-width:1.5;"/>
    <path clip-path="url(#pe32f52b6e8)" d="M 220.110775 206.340038 
L 221.055476 210.116371 
" style="fill:none;stroke:#1f77b4;stroke-width:1.5;"/>
    <path clip-path="url(#pe32f52b6e8)" d="M 220.110775 206.340038 
L 219.191061 210.583058 
" style="fill:none;stroke:#1f77b4;stroke-width:1.5;"/>
    <path clip-path="url(#pe32f52b6e8)" d="M 201.352345 213.413383 
L 202.244935 216.746465 
" style="fill:none;stroke:#1f77b4;stroke-width:1.5;"/>
    <path clip-path="url(#pe32f52b6e8)" d="M 201.352345 213.413383 
L 200.58206 217.163458 
" style="fill:none;stroke:#1f77b4;stroke-width:1.5;"/>
    <path clip-path="url(#pe32f52b6e8)" d="M 182.494958 220.551743 
L 183.31998 223.438982 
" style="fill:none;stroke:#1f77b4;stroke-width:1.5;"/>
    <path clip-path="url(#pe32f52b6e8)" d="M 182.494958 220.551743 
L 181.86425 223.804696 
" style="fill:none;stroke:#1f77b4;stroke-width:1.5;"/>
   </g>
  </g>
 </g>
 <defs>
  <clipPath id="pe32f52b6e8">
   <rect height="217.44" width="217.44" x="112.68" y="34.56"/>
  </clipPath>
 </defs>
</svg>
