<?xml version="1.0" encoding="utf-8" standalone="no"?>
<!DOCTYPE svg PUBLIC "-//W3C//DTD SVG 1.1//EN"
  "http://www.w3.org/Graphics/SVG/1.1/DTD/svg11.dtd">
<!-- Created with matplotlib (https://matplotlib.org/) -->
<svg height="288pt" version="1.1" viewBox="0 0 432 288" width="432pt" xmlns="http://www.w3.org/2000/svg" xmlns:xlink="http://www.w3.org/1999/xlink">
 <metadata>
  <rdf:RDF xmlns:cc="http://creativecommons.org/ns#" xmlns:dc="http://purl.org/dc/elements/1.1/" xmlns:rdf="http://www.w3.org/1999/02/22-rdf-syntax-ns#">
   <cc:Work>
    <dc:type rdf:resource="http://purl.org/dc/dcmitype/StillImage"/>
    <dc:date>2021-02-25T09:02:59.892175</dc:date>
    <dc:format>image/svg+xml</dc:format>
    <dc:creator>
     <cc:Agent>
      <dc:title>Matplotlib v3.3.3, https://matplotlib.org/</dc:title>
     </cc:Agent>
    </dc:creator>
   </cc:Work>
  </rdf:RDF>
 </metadata>
 <defs>
  <style type="text/css">*{stroke-linecap:butt;stroke-linejoin:round;}</style>
 </defs>
 <g id="figure_1">
  <g id="patch_1">
   <path d="M 0 288 
L 432 288 
L 432 0 
L 0 0 
z
" style="fill:#ffffff;"/>
  </g>
  <g id="axes_1">
   <g id="Quiver_1">
    <path clip-path="url(#p47625a4ad2)" d="M 70.105954 241.228591 
L 77.898625 249.021261 
L 78.786397 246.357944 
L 85.000805 257.898987 
L 73.459762 251.684579 
L 76.12308 250.796806 
L 68.330409 243.004136 
L 70.105954 241.228591 
"/>
    <path clip-path="url(#p47625a4ad2)" d="M 113.428446 241.094721 
L 122.396196 247.500257 
L 122.834042 244.727227 
L 130.861232 255.0896 
L 118.455575 250.857082 
L 120.936706 249.543542 
L 111.968957 243.138006 
L 113.428446 241.094721 
"/>
    <path clip-path="url(#p47625a4ad2)" d="M 156.673786 240.962377 
L 166.803224 245.303565 
L 166.638369 242.501026 
L 176.694538 250.908642 
L 163.670975 249.424945 
L 165.814093 247.611538 
L 155.684655 243.27035 
L 156.673786 240.962377 
"/>
    <path clip-path="url(#p47625a4ad2)" d="M 199.837295 240.873482 
L 210.747033 242.432016 
L 209.859261 239.768698 
L 221.755413 245.272888 
L 208.793934 247.225988 
L 210.391924 244.917779 
L 199.482186 243.359245 
L 199.837295 240.873482 
"/>
    <path clip-path="url(#p47625a4ad2)" d="M 242.962705 240.873482 
L 253.872444 239.314948 
L 252.274453 237.006739 
L 265.235932 238.959839 
L 253.33978 244.464029 
L 254.227553 241.800711 
L 243.317814 243.359245 
L 242.962705 240.873482 
"/>
    <path clip-path="url(#p47625a4ad2)" d="M 286.126214 240.962377 
L 296.255651 236.621189 
L 294.112533 234.807782 
L 307.136096 233.324085 
L 297.079927 241.731701 
L 297.244783 238.929163 
L 287.115345 243.27035 
L 286.126214 240.962377 
"/>
    <path clip-path="url(#p47625a4ad2)" d="M 329.371554 241.094721 
L 338.339304 234.689186 
L 335.858172 233.375646 
L 348.26383 229.143127 
L 340.23664 239.5055 
L 339.798793 236.73247 
L 330.831043 243.138006 
L 329.371554 241.094721 
"/>
    <path clip-path="url(#p47625a4ad2)" d="M 372.694046 241.228591 
L 380.486716 233.435921 
L 377.823398 232.548148 
L 389.364442 226.33374 
L 383.150034 237.874784 
L 382.262261 235.211466 
L 374.469591 243.004136 
L 372.694046 241.228591 
"/>
    <path clip-path="url(#p47625a4ad2)" d="M 70.239824 213.147658 
L 76.64536 222.115408 
L 77.9589 219.634276 
L 82.191418 232.039934 
L 71.829046 224.012744 
L 74.602075 223.574897 
L 68.196539 214.607147 
L 70.239824 213.147658 
"/>
    <path clip-path="url(#p47625a4ad2)" d="M 113.586474 212.98963 
L 121.379144 220.7823 
L 122.266917 218.118983 
L 128.481325 229.660026 
L 116.940281 223.445618 
L 119.603599 222.557845 
L 111.810929 214.765175 
L 113.586474 212.98963 
"/>
    <path clip-path="url(#p47625a4ad2)" d="M 156.82517 212.80082 
L 166.275171 218.470821 
L 166.490487 215.671707 
L 175.318463 225.360948 
L 162.614791 222.131201 
L 164.983272 220.623985 
L 155.533271 214.953985 
L 156.82517 212.80082 
"/>
    <path clip-path="url(#p47625a4ad2)" d="M 199.905964 212.646284 
L 210.712453 214.807581 
L 209.973782 212.09912 
L 221.546301 218.254715 
L 208.496439 219.485834 
L 210.220006 217.26982 
L 199.413516 215.108522 
L 199.905964 212.646284 
"/>
    <path clip-path="url(#p47625a4ad2)" d="M 242.894036 212.646284 
L 253.700525 210.484986 
L 251.976959 208.268971 
L 265.02682 209.50009 
L 253.454301 215.655686 
L 254.192973 212.947224 
L 243.386484 215.108522 
L 242.894036 212.646284 
"/>
    <path clip-path="url(#p47625a4ad2)" d="M 285.97483 212.80082 
L 295.424831 207.13082 
L 293.056349 205.623604 
L 305.760021 202.393857 
L 296.932046 212.083099 
L 296.716729 209.283984 
L 287.266729 214.953985 
L 285.97483 212.80082 
"/>
    <path clip-path="url(#p47625a4ad2)" d="M 329.213526 212.98963 
L 337.006196 205.19696 
L 334.342879 204.309187 
L 345.883922 198.094779 
L 339.669514 209.635823 
L 338.781742 206.972505 
L 330.989071 214.765175 
L 329.213526 212.98963 
"/>
    <path clip-path="url(#p47625a4ad2)" d="M 372.560176 213.147658 
L 378.965711 204.179908 
L 376.192682 203.742062 
L 386.555055 195.714872 
L 382.322536 208.120529 
L 381.008996 205.639397 
L 374.603461 214.607147 
L 372.560176 213.147658 
"/>
    <path clip-path="url(#p47625a4ad2)" d="M 70.372168 185.143876 
L 74.713356 195.273314 
L 76.526764 193.130196 
L 78.010461 206.153759 
L 69.602844 196.09759 
L 72.405383 196.262445 
L 68.064195 186.133007 
L 70.372168 185.143876 
"/>
    <path clip-path="url(#p47625a4ad2)" d="M 113.775284 184.992492 
L 119.445284 194.442493 
L 120.952499 192.074012 
L 124.182247 204.777684 
L 114.493005 195.949708 
L 117.292119 195.734392 
L 111.622119 186.284391 
L 113.775284 184.992492 
"/>
    <path clip-path="url(#p47625a4ad2)" d="M 157.066993 184.750669 
L 164.859664 192.543339 
L 165.747436 189.880022 
L 171.961844 201.421065 
L 160.420801 195.206657 
L 163.084118 194.318884 
L 155.291448 186.526214 
L 157.066993 184.750669 
"/>
    <path clip-path="url(#p47625a4ad2)" d="M 200.056764 184.44737 
L 210.511729 187.932358 
L 210.114705 185.15319 
L 220.834351 192.696645 
L 207.732561 192.299621 
L 209.717681 190.314502 
L 199.262716 186.829513 
L 200.056764 184.44737 
"/>
    <path clip-path="url(#p47625a4ad2)" d="M 242.743236 184.44737 
L 253.1982 180.962382 
L 251.21308 178.977262 
L 264.314871 178.580238 
L 253.595224 186.123693 
L 253.992248 183.344525 
L 243.537284 186.829513 
L 242.743236 184.44737 
"/>
    <path clip-path="url(#p47625a4ad2)" d="M 285.733007 184.750669 
L 293.525677 176.957999 
L 290.862359 176.070226 
L 302.403403 169.855818 
L 296.188995 181.396862 
L 295.301222 178.733544 
L 287.508552 186.526214 
L 285.733007 184.750669 
"/>
    <path clip-path="url(#p47625a4ad2)" d="M 329.024716 184.992492 
L 334.694717 175.542491 
L 331.895603 175.327175 
L 341.584844 166.499199 
L 338.355097 179.202871 
L 336.847882 176.83439 
L 331.177881 186.284391 
L 329.024716 184.992492 
"/>
    <path clip-path="url(#p47625a4ad2)" d="M 372.427832 185.143876 
L 376.769019 175.014438 
L 373.96648 175.179293 
L 382.374097 165.123124 
L 380.8904 178.146687 
L 379.076992 176.003569 
L 374.735805 186.133007 
L 372.427832 185.143876 
"/>
    <path clip-path="url(#p47625a4ad2)" d="M 70.461063 157.221926 
L 72.019597 168.131664 
L 74.327806 166.533674 
L 72.374706 179.495153 
L 66.870517 167.599001 
L 69.533834 168.486773 
L 67.9753 157.577035 
L 70.461063 157.221926 
"/>
    <path clip-path="url(#p47625a4ad2)" d="M 113.92982 157.153257 
L 116.091118 167.959746 
L 118.307132 166.236179 
L 117.076013 179.286041 
L 110.920418 167.713522 
L 113.62888 168.452194 
L 111.467582 157.645704 
L 113.92982 157.153257 
"/>
    <path clip-path="url(#p47625a4ad2)" d="M 157.370293 157.002457 
L 160.855281 167.457421 
L 162.840401 165.472301 
L 163.237425 178.574092 
L 155.693969 167.854445 
L 158.473137 168.251469 
L 154.988149 157.796504 
L 157.370293 157.002457 
"/>
    <path clip-path="url(#p47625a4ad2)" d="M 200.547513 156.511708 
L 208.340183 164.304378 
L 209.227956 161.641061 
L 215.442364 173.182104 
L 203.90132 166.967696 
L 206.564638 166.079923 
L 198.771968 158.287253 
L 200.547513 156.511708 
"/>
    <path clip-path="url(#p47625a4ad2)" d="M 242.252487 156.511708 
L 250.045157 148.719038 
L 247.38184 147.831265 
L 258.922883 141.616857 
L 252.708475 153.1579 
L 251.820703 150.494583 
L 244.028032 158.287253 
L 242.252487 156.511708 
"/>
    <path clip-path="url(#p47625a4ad2)" d="M 285.429707 157.002457 
L 288.914695 146.547492 
L 286.135528 146.944516 
L 293.678983 136.224869 
L 293.281959 149.32666 
L 291.296839 147.34154 
L 287.811851 157.796504 
L 285.429707 157.002457 
"/>
    <path clip-path="url(#p47625a4ad2)" d="M 328.87018 157.153257 
L 331.031478 146.346767 
L 328.323016 147.085439 
L 334.478611 135.51292 
L 335.70973 148.562782 
L 333.493716 146.839215 
L 331.332418 157.645704 
L 328.87018 157.153257 
"/>
    <path clip-path="url(#p47625a4ad2)" d="M 372.338937 157.221926 
L 373.897471 146.312188 
L 371.234153 147.19996 
L 376.738343 135.303808 
L 378.691442 148.265287 
L 376.383234 146.667297 
L 374.8247 157.577035 
L 372.338937 157.221926 
"/>
    <path clip-path="url(#p47625a4ad2)" d="M 70.461063 129.338074 
L 68.902529 140.247812 
L 71.565847 139.36004 
L 66.061657 151.256192 
L 64.108558 138.294713 
L 66.416766 139.892703 
L 67.9753 128.982965 
L 70.461063 129.338074 
"/>
    <path clip-path="url(#p47625a4ad2)" d="M 113.92982 129.406743 
L 111.768522 140.213233 
L 114.476984 139.474561 
L 108.321389 151.04708 
L 107.09027 137.997218 
L 109.306284 139.720785 
L 111.467582 128.914296 
L 113.92982 129.406743 
"/>
    <path clip-path="url(#p47625a4ad2)" d="M 157.370293 129.557543 
L 153.885305 140.012508 
L 156.664472 139.615484 
L 149.121017 150.335131 
L 149.518041 137.23334 
L 151.503161 139.21846 
L 154.988149 128.763496 
L 157.370293 129.557543 
"/>
    <path clip-path="url(#p47625a4ad2)" d="M 200.547513 130.048292 
L 192.754843 137.840962 
L 195.41816 138.728735 
L 183.877117 144.943143 
L 190.091525 133.4021 
L 190.979297 136.065417 
L 198.771968 128.272747 
L 200.547513 130.048292 
"/>
    <path clip-path="url(#p47625a4ad2)" d="M 242.252487 130.048292 
L 234.459817 122.255622 
L 233.572044 124.918939 
L 227.357636 113.377896 
L 238.89868 119.592304 
L 236.235362 120.480077 
L 244.028032 128.272747 
L 242.252487 130.048292 
"/>
    <path clip-path="url(#p47625a4ad2)" d="M 285.429707 129.557543 
L 281.944719 119.102579 
L 279.959599 121.087699 
L 279.562575 107.985908 
L 287.106031 118.705555 
L 284.326863 118.308531 
L 287.811851 128.763496 
L 285.429707 129.557543 
"/>
    <path clip-path="url(#p47625a4ad2)" d="M 328.87018 129.406743 
L 326.708882 118.600254 
L 324.492868 120.323821 
L 325.723987 107.273959 
L 331.879582 118.846478 
L 329.17112 118.107806 
L 331.332418 128.914296 
L 328.87018 129.406743 
"/>
    <path clip-path="url(#p47625a4ad2)" d="M 372.338937 129.338074 
L 370.780403 118.428336 
L 368.472194 120.026326 
L 370.425294 107.064847 
L 375.929483 118.960999 
L 373.266166 118.073227 
L 374.8247 128.982965 
L 372.338937 129.338074 
"/>
    <path clip-path="url(#p47625a4ad2)" d="M 70.372168 101.416124 
L 66.030981 111.545562 
L 68.83352 111.380707 
L 60.425903 121.436876 
L 61.9096 108.413313 
L 63.723008 110.556431 
L 68.064195 100.426993 
L 70.372168 101.416124 
"/>
    <path clip-path="url(#p47625a4ad2)" d="M 113.775284 101.567508 
L 108.105283 111.017509 
L 110.904397 111.232825 
L 101.215156 120.060801 
L 104.444903 107.357129 
L 105.952118 109.72561 
L 111.622119 100.275609 
L 113.775284 101.567508 
"/>
    <path clip-path="url(#p47625a4ad2)" d="M 157.066993 101.809331 
L 149.274323 109.602001 
L 151.937641 110.489774 
L 140.396597 116.704182 
L 146.611005 105.163138 
L 147.498778 107.826456 
L 155.291448 100.033786 
L 157.066993 101.809331 
"/>
    <path clip-path="url(#p47625a4ad2)" d="M 200.056764 102.11263 
L 189.6018 105.597618 
L 191.58692 107.582738 
L 178.485129 107.979762 
L 189.204776 100.436307 
L 188.807752 103.215475 
L 199.262716 99.730487 
L 200.056764 102.11263 
"/>
    <path clip-path="url(#p47625a4ad2)" d="M 242.743236 102.11263 
L 232.288271 98.627642 
L 232.685295 101.40681 
L 221.965649 93.863355 
L 235.067439 94.260379 
L 233.082319 96.245498 
L 243.537284 99.730487 
L 242.743236 102.11263 
"/>
    <path clip-path="url(#p47625a4ad2)" d="M 285.733007 101.809331 
L 277.940336 94.016661 
L 277.052564 96.679978 
L 270.838156 85.138935 
L 282.379199 91.353343 
L 279.715882 92.241116 
L 287.508552 100.033786 
L 285.733007 101.809331 
"/>
    <path clip-path="url(#p47625a4ad2)" d="M 329.024716 101.567508 
L 323.354716 92.117507 
L 321.847501 94.485988 
L 318.617753 81.782316 
L 328.306995 90.610292 
L 325.507881 90.825608 
L 331.177881 100.275609 
L 329.024716 101.567508 
"/>
    <path clip-path="url(#p47625a4ad2)" d="M 372.427832 101.416124 
L 368.086644 91.286686 
L 366.273236 93.429804 
L 364.789539 80.406241 
L 373.197156 90.46241 
L 370.394617 90.297555 
L 374.735805 100.426993 
L 372.427832 101.416124 
"/>
    <path clip-path="url(#p47625a4ad2)" d="M 70.239824 73.412342 
L 63.834289 82.380092 
L 66.607318 82.817938 
L 56.244945 90.845128 
L 60.477464 78.439471 
L 61.791004 80.920603 
L 68.196539 71.952853 
L 70.239824 73.412342 
"/>
    <path clip-path="url(#p47625a4ad2)" d="M 113.586474 73.57037 
L 105.793804 81.36304 
L 108.457121 82.250813 
L 96.916078 88.465221 
L 103.130486 76.924177 
L 104.018258 79.587495 
L 111.810929 71.794825 
L 113.586474 73.57037 
"/>
    <path clip-path="url(#p47625a4ad2)" d="M 156.82517 73.75918 
L 147.375169 79.42918 
L 149.743651 80.936396 
L 137.039979 84.166143 
L 145.867954 74.476901 
L 146.083271 77.276016 
L 155.533271 71.606015 
L 156.82517 73.75918 
"/>
    <path clip-path="url(#p47625a4ad2)" d="M 199.905964 73.913716 
L 189.099475 76.075014 
L 190.823041 78.291029 
L 177.77318 77.05991 
L 189.345699 70.904314 
L 188.607027 73.612776 
L 199.413516 71.451478 
L 199.905964 73.913716 
"/>
    <path clip-path="url(#p47625a4ad2)" d="M 242.894036 73.913716 
L 232.087547 71.752419 
L 232.826218 74.46088 
L 221.253699 68.305285 
L 234.303561 67.074166 
L 232.579994 69.29018 
L 243.386484 71.451478 
L 242.894036 73.913716 
"/>
    <path clip-path="url(#p47625a4ad2)" d="M 285.97483 73.75918 
L 276.524829 68.089179 
L 276.309513 70.888293 
L 267.481537 61.199052 
L 280.185209 64.428799 
L 277.816728 65.936015 
L 287.266729 71.606015 
L 285.97483 73.75918 
"/>
    <path clip-path="url(#p47625a4ad2)" d="M 329.213526 73.57037 
L 321.420856 65.7777 
L 320.533083 68.441017 
L 314.318675 56.899974 
L 325.859719 63.114382 
L 323.196401 64.002155 
L 330.989071 71.794825 
L 329.213526 73.57037 
"/>
    <path clip-path="url(#p47625a4ad2)" d="M 372.560176 73.412342 
L 366.15464 64.444592 
L 364.8411 66.925724 
L 360.608582 54.520066 
L 370.970954 62.547256 
L 368.197925 62.985103 
L 374.603461 71.952853 
L 372.560176 73.412342 
"/>
    <path clip-path="url(#p47625a4ad2)" d="M 70.105954 45.331409 
L 62.313284 53.124079 
L 64.976602 54.011852 
L 53.435558 60.22626 
L 59.649966 48.685216 
L 60.537739 51.348534 
L 68.330409 43.555864 
L 70.105954 45.331409 
"/>
    <path clip-path="url(#p47625a4ad2)" d="M 113.428446 45.465279 
L 104.460696 51.870814 
L 106.941828 53.184354 
L 94.53617 57.416873 
L 102.56336 47.0545 
L 103.001207 49.82753 
L 111.968957 43.421994 
L 113.428446 45.465279 
"/>
    <path clip-path="url(#p47625a4ad2)" d="M 156.673786 45.597623 
L 146.544349 49.938811 
L 148.687467 51.752218 
L 135.663904 53.235915 
L 145.720073 44.828299 
L 145.555217 47.630837 
L 155.684655 43.28965 
L 156.673786 45.597623 
"/>
    <path clip-path="url(#p47625a4ad2)" d="M 199.837295 45.686518 
L 188.927556 47.245052 
L 190.525547 49.553261 
L 177.564068 47.600161 
L 189.46022 42.095971 
L 188.572447 44.759289 
L 199.482186 43.200755 
L 199.837295 45.686518 
"/>
    <path clip-path="url(#p47625a4ad2)" d="M 242.962705 45.686518 
L 232.052967 44.127984 
L 232.940739 46.791302 
L 221.044587 41.287112 
L 234.006066 39.334012 
L 232.408076 41.642221 
L 243.317814 43.200755 
L 242.962705 45.686518 
"/>
    <path clip-path="url(#p47625a4ad2)" d="M 286.126214 45.597623 
L 275.996776 41.256435 
L 276.161631 44.058974 
L 266.105462 35.651358 
L 279.129025 37.135055 
L 276.985907 38.948462 
L 287.115345 43.28965 
L 286.126214 45.597623 
"/>
    <path clip-path="url(#p47625a4ad2)" d="M 329.371554 45.465279 
L 320.403804 39.059743 
L 319.965958 41.832773 
L 311.938768 31.4704 
L 324.344425 35.702918 
L 321.863294 37.016458 
L 330.831043 43.421994 
L 329.371554 45.465279 
"/>
    <path clip-path="url(#p47625a4ad2)" d="M 372.694046 45.331409 
L 364.901375 37.538739 
L 364.013603 40.202056 
L 357.799195 28.661013 
L 369.340238 34.875421 
L 366.67692 35.763194 
L 374.469591 43.555864 
L 372.694046 45.331409 
"/>
   </g>
  </g>
 </g>
 <defs>
  <clipPath id="p47625a4ad2">
   <rect height="217.44" width="334.8" x="54" y="34.56"/>
  </clipPath>
 </defs>
</svg>
